<svg width="33" height="33" viewBox="0 0 33 33" fill="none" xmlns="http://www.w3.org/2000/svg">
<path d="M10.3939 7.45532V3.45532C10.3939 3.19011 10.4993 2.93575 10.6868 2.74822C10.8744 2.56068 11.1287 2.45532 11.3939 2.45532C11.6591 2.45532 11.9135 2.56068 12.101 2.74822C12.2886 2.93575 12.3939 3.19011 12.3939 3.45532V7.45532C12.3939 7.72054 12.2886 7.97489 12.101 8.16243C11.9135 8.34997 11.6591 8.45532 11.3939 8.45532C11.1287 8.45532 10.8744 8.34997 10.6868 8.16243C10.4993 7.97489 10.3939 7.72054 10.3939 7.45532ZM15.3939 8.45532C15.6591 8.45532 15.9135 8.34997 16.101 8.16243C16.2886 7.97489 16.3939 7.72054 16.3939 7.45532V3.45532C16.3939 3.19011 16.2886 2.93575 16.101 2.74822C15.9135 2.56068 15.6591 2.45532 15.3939 2.45532C15.1287 2.45532 14.8744 2.56068 14.6868 2.74822C14.4993 2.93575 14.3939 3.19011 14.3939 3.45532V7.45532C14.3939 7.72054 14.4993 7.97489 14.6868 8.16243C14.8744 8.34997 15.1287 8.45532 15.3939 8.45532ZM19.3939 8.45532C19.6591 8.45532 19.9135 8.34997 20.101 8.16243C20.2886 7.97489 20.3939 7.72054 20.3939 7.45532V3.45532C20.3939 3.19011 20.2886 2.93575 20.101 2.74822C19.9135 2.56068 19.6591 2.45532 19.3939 2.45532C19.1287 2.45532 18.8743 2.56068 18.6868 2.74822C18.4993 2.93575 18.3939 3.19011 18.3939 3.45532V7.45532C18.3939 7.72054 18.4993 7.97489 18.6868 8.16243C18.8743 8.34997 19.1287 8.45532 19.3939 8.45532ZM31.3939 15.4553V16.4553C31.3932 17.7268 30.9081 18.9503 30.0373 19.8769C29.1665 20.8034 27.9755 21.3634 26.7064 21.4428C26.0176 23.3693 24.8573 25.0925 23.3314 26.4553H26.3939C26.6591 26.4553 26.9135 26.5607 27.101 26.7482C27.2886 26.9358 27.3939 27.1901 27.3939 27.4553C27.3939 27.7205 27.2886 27.9749 27.101 28.1624C26.9135 28.35 26.6591 28.4553 26.3939 28.4553H4.39392C4.1287 28.4553 3.87435 28.35 3.68681 28.1624C3.49928 27.9749 3.39392 27.7205 3.39392 27.4553C3.39392 27.1901 3.49928 26.9358 3.68681 26.7482C3.87435 26.5607 4.1287 26.4553 4.39392 26.4553H7.45642C6.18208 25.3271 5.16118 23.9418 4.46096 22.3906C3.76074 20.8393 3.39708 19.1573 3.39392 17.4553V11.4553C3.39392 11.1901 3.49928 10.9358 3.68681 10.7482C3.87435 10.5607 4.1287 10.4553 4.39392 10.4553H26.3939C27.72 10.4553 28.9918 10.9821 29.9295 11.9198C30.8671 12.8575 31.3939 14.1292 31.3939 15.4553ZM29.3939 15.4553C29.3932 14.8355 29.2006 14.2312 28.8424 13.7253C28.4843 13.2194 27.9783 12.8369 27.3939 12.6303V17.4553C27.3947 18.0834 27.3445 18.7104 27.2439 19.3303C27.8644 19.147 28.409 18.768 28.7964 18.2499C29.1839 17.7318 29.3935 17.1023 29.3939 16.4553V15.4553Z" fill="currentColor"/>
</svg>
