<svg width="33" height="33" viewBox="0 0 33 33" fill="none" xmlns="http://www.w3.org/2000/svg">
<path d="M28.2492 13.3257L18.2492 4.23823C17.8805 3.90093 17.3989 3.71387 16.8992 3.71387C16.3995 3.71387 15.9179 3.90093 15.5492 4.23823L5.54919 13.3257C5.34445 13.513 5.18092 13.7409 5.06902 13.9949C4.95712 14.2488 4.89928 14.5232 4.89919 14.8007V26.3132C4.89106 26.8175 5.06908 27.307 5.39919 27.6882C5.58655 27.9013 5.81736 28.0718 6.07609 28.1882C6.33482 28.3046 6.61548 28.3643 6.89919 28.3632H12.8992C13.1644 28.3632 13.4188 28.2579 13.6063 28.0703C13.7938 27.8828 13.8992 27.6284 13.8992 27.3632V21.3632C13.8992 21.098 14.0045 20.8437 14.1921 20.6561C14.3796 20.4686 14.634 20.3632 14.8992 20.3632H18.8992C19.1644 20.3632 19.4188 20.4686 19.6063 20.6561C19.7938 20.8437 19.8992 21.098 19.8992 21.3632V27.3632C19.8992 27.6284 20.0045 27.8828 20.1921 28.0703C20.3796 28.2579 20.634 28.3632 20.8992 28.3632H26.8992C27.2309 28.3662 27.5579 28.2844 27.8492 28.1257C28.1662 27.9531 28.4309 27.6984 28.6156 27.3883C28.8004 27.0782 28.8983 26.7242 28.8992 26.3632V14.8007C28.8991 14.5232 28.8413 14.2488 28.7294 13.9949C28.6175 13.7409 28.4539 13.513 28.2492 13.3257V13.3257Z" fill="currentColor"/>
</svg>
