<svg width="16" height="16" viewBox="0 0 24 24" fill="none" xmlns="http://www.w3.org/2000/svg" aria-hidden="true" dimensionoverrides="[object Object]" class="styles__StyledInlineSvg-sc-12l8vvi-0 gpGxLA sc-halPKt cTHXai"><path fill-rule="evenodd" clip-rule="evenodd" d="M13.1213 18.7071L19.1213 12.7071C19.6839 12.1445 20 11.3814 20 10.5858V7C20 5.34315 18.6568 4 17 4H13.4142C12.6185 4 11.8555 4.31607 11.2929 4.87868L5.29286 10.8787C4.12129 12.0503 4.12129 13.9497 5.29286 15.1213L8.87865 18.7071C10.0502 19.8787 11.9497 19.8787 13.1213 18.7071ZM15.5 10C16.3284 10 17 9.32843 17 8.5C17 7.67157 16.3284 7 15.5 7C14.6716 7 14 7.67157 14 8.5C14 9.32843 14.6716 10 15.5 10Z" fill="currentColor"></path></svg>