<svg width="18" height="18" viewBox="0 0 24 24" fill="none" xmlns="http://www.w3.org/2000/svg" aria-hidden="true" class="styles__StyledInlineSvg-sc-12l8vvi-0 jFpckg sc-8dc7a093-36 dHGXFx"><path d="M13.5 7C14.6046 7 15.5 6.10457 15.5 5C15.5 3.89543 14.6046 3 13.5 3C12.3954 3 11.5 3.89543 11.5 5C11.5 6.10457 12.3954 7 13.5 7Z" fill="currentColor"></path><path d="M10.579 10.1008L8.76352 10.7816L7.92782 12.8602C7.7218 13.3726 7.13939 13.621 6.62697 13.415C6.11455 13.209 5.86616 12.6265 6.07218 12.1141L6.90788 10.0355C7.11724 9.51477 7.53578 9.10596 8.06131 8.9089L10.9996 7.80711C11.7806 7.51427 12.6612 7.73681 13.2093 8.36549L14.9761 10.392L17.437 11.5877C17.9337 11.8291 18.1407 12.4274 17.8994 12.9242C17.658 13.4209 17.0597 13.628 16.5629 13.3866L14.1021 12.1909C13.8605 12.0736 13.6451 11.9088 13.4686 11.7063L12.5161 10.6138L11.6766 13.1324L14.7686 15.4513C15.193 15.7696 15.4736 16.2434 15.5486 16.7686L15.99 19.8586C16.068 20.4053 15.6881 20.9119 15.1414 20.99C14.5947 21.068 14.0881 20.6881 14.01 20.1414L13.5687 17.0514L10.4767 14.7325C9.78794 14.216 9.50701 13.3167 9.77925 12.5L10.579 10.1008Z" fill="currentColor"></path><path d="M9.81623 15.5512C10.3402 15.7258 10.6233 16.2922 10.4487 16.8161L9.83171 18.667L7.01453 20.3575C6.54095 20.6416 5.92669 20.4881 5.64252 20.0145C5.35836 19.541 5.5119 18.9267 5.98547 18.6425L8.16829 17.3327L8.55132 16.1837C8.72596 15.6597 9.29228 15.3765 9.81623 15.5512Z" fill="currentColor"></path></svg>