<svg width="33" height="33" viewBox="0 0 33 33" fill="none" xmlns="http://www.w3.org/2000/svg">
<path d="M27.3992 4.36334V28.3633C27.3992 28.6286 27.2938 28.8829 27.1063 29.0704C26.9187 29.258 26.6644 29.3633 26.3992 29.3633C26.134 29.3633 25.8796 29.258 25.6921 29.0704C25.5045 28.8829 25.3992 28.6286 25.3992 28.3633V21.3633H19.3992C19.2576 21.3619 19.1179 21.3312 18.9888 21.2731C18.8598 21.215 18.7441 21.1308 18.6492 21.0258C18.5561 20.921 18.4859 20.798 18.4428 20.6646C18.3998 20.5312 18.3849 20.3903 18.3992 20.2508C18.709 17.7473 19.202 15.2698 19.8742 12.8383C21.3742 7.53834 23.4617 4.36334 26.0617 3.42584C26.2123 3.36874 26.3746 3.34934 26.5344 3.36933C26.6942 3.38933 26.8467 3.44811 26.9786 3.54056C27.1105 3.633 27.2177 3.75631 27.2911 3.89972C27.3644 4.04313 27.4015 4.20229 27.3992 4.36334V4.36334ZM16.8867 10.2008L15.8867 4.20084C15.8653 4.07116 15.8187 3.94695 15.7493 3.83531C15.68 3.72367 15.5893 3.62677 15.4825 3.55017C15.3758 3.47356 15.2549 3.41873 15.1269 3.38882C14.999 3.35891 14.8664 3.3545 14.7367 3.37584C14.4748 3.41894 14.2407 3.56431 14.086 3.77998C13.9313 3.99564 13.8686 4.26394 13.9117 4.52584L14.7242 9.36334H12.3992V4.36334C12.3992 4.09812 12.2938 3.84377 12.1063 3.65623C11.9187 3.4687 11.6644 3.36334 11.3992 3.36334C11.134 3.36334 10.8796 3.4687 10.6921 3.65623C10.5045 3.84377 10.3992 4.09812 10.3992 4.36334V9.36334H8.07418L8.88668 4.52584C8.90802 4.39616 8.9036 4.26355 8.87369 4.13557C8.84378 4.00759 8.78896 3.88676 8.71235 3.77998C8.63574 3.67319 8.53885 3.58254 8.42721 3.51319C8.31556 3.44385 8.19136 3.39718 8.06168 3.37584C7.932 3.3545 7.79938 3.35891 7.67141 3.38882C7.54343 3.41873 7.4226 3.47356 7.31581 3.55017C7.20903 3.62677 7.11837 3.72367 7.04903 3.83531C6.97969 3.94695 6.93302 4.07116 6.91168 4.20084L5.91168 10.2008C5.90029 10.2542 5.89609 10.3089 5.89918 10.3633C5.90063 11.6486 6.35115 12.893 7.17284 13.8813C7.99454 14.8696 9.13576 15.5398 10.3992 15.7758V28.3633C10.3992 28.6286 10.5045 28.8829 10.6921 29.0704C10.8796 29.258 11.134 29.3633 11.3992 29.3633C11.6644 29.3633 11.9187 29.258 12.1063 29.0704C12.2938 28.8829 12.3992 28.6286 12.3992 28.3633V15.7758C13.6626 15.5398 14.8038 14.8696 15.6255 13.8813C16.4472 12.893 16.8977 11.6486 16.8992 10.3633C16.9012 10.313 16.897 10.2626 16.8867 10.2133V10.2008Z" fill="currentColor"/>
</svg>
