
<svg width="16" height="16" viewBox="0 0 24 24" fill="none" xmlns="http://www.w3.org/2000/svg" aria-hidden="true" dimensionoverrides="[object Object]" class="styles__StyledInlineSvg-sc-12l8vvi-0 jFpckg sc-halPKt cTHXai"><path d="M12.9113 4.58819C12.7494 4.23012 12.3929 4 12 4C11.6071 4 11.2505 4.23012 11.0887 4.58819L9.37316 8.38448L5.23254 8.84295C4.84199 8.8862 4.51296 9.15416 4.39154 9.52786C4.27012 9.90157 4.3788 10.3118 4.66935 10.5763L7.7497 13.381L6.90621 17.4606C6.82665 17.8454 6.97982 18.2412 7.29771 18.4721C7.6156 18.7031 8.0393 18.7265 8.38068 18.5319L12 16.469L15.6193 18.5319C15.9607 18.7265 16.3844 18.7031 16.7023 18.4721C17.0202 18.2412 17.1733 17.8454 17.0938 17.4606L16.2503 13.381L19.3306 10.5763C19.6212 10.3118 19.7299 9.90157 19.6084 9.52786C19.487 9.15416 19.158 8.8862 18.7674 8.84295L14.6268 8.38448L12.9113 4.58819Z" fill="currentColor"></path></svg>