<svg width="33" height="33" viewBox="0 0 33 33" fill="none" xmlns="http://www.w3.org/2000/svg">
<path d="M17.3801 24.6569L23.6801 28.6569C24.4926 29.1694 25.4926 28.4069 25.2551 27.4694L23.4301 20.2944C23.3807 20.0955 23.3886 19.8867 23.4527 19.6921C23.5168 19.4975 23.6347 19.3249 23.7926 19.1944L29.4426 14.4819C30.1801 13.8694 29.8051 12.6319 28.8426 12.5694L21.4676 12.0944C21.2663 12.0827 21.0729 12.0126 20.9108 11.8927C20.7488 11.7728 20.6252 11.6084 20.5551 11.4194L17.8051 4.49437C17.7323 4.29425 17.5997 4.12137 17.4252 3.99921C17.2508 3.87705 17.043 3.81152 16.8301 3.81152C16.6171 3.81152 16.4093 3.87705 16.2349 3.99921C16.0605 4.12137 15.9279 4.29425 15.8551 4.49437L13.1051 11.4194C13.035 11.6084 12.9114 11.7728 12.7493 11.8927C12.5873 12.0126 12.3938 12.0827 12.1926 12.0944L4.81757 12.5694C3.85507 12.6319 3.48007 13.8694 4.21757 14.4819L9.86757 19.1944C10.0255 19.3249 10.1433 19.4975 10.2074 19.6921C10.2716 19.8867 10.2794 20.0955 10.2301 20.2944L8.54257 26.9444C8.25507 28.0694 9.45507 28.9819 10.4176 28.3694L16.2801 24.6569C16.4445 24.5523 16.6353 24.4968 16.8301 24.4968C17.0249 24.4968 17.2157 24.5523 17.3801 24.6569V24.6569Z" stroke="currentColor" stroke-width="2" stroke-linecap="round" stroke-linejoin="round"/>
</svg>
