<svg width="16" height="16" viewBox="0 0 16 16" fill="none" xmlns="http://www.w3.org/2000/svg" aria-hidden="true" class="styles__StyledInlineSvg-sc-12l8vvi-0 jFpckg"><path d="M5 4C5 3.44772 5.44772 3 6 3H13C13.5523 3 14 3.44772 14 4C14 4.55228 13.5523 5 13 5H6C5.44772 5 5 4.55228 5 4Z" fill="currentColor"></path><path d="M5 8C5 7.44772 5.44772 7 6 7H15C15.5523 7 16 7.44772 16 8C16 8.55228 15.5523 9 15 9H6C5.44772 9 5 8.55228 5 8Z" fill="currentColor"></path><path d="M5 12C5 11.4477 5.44772 11 6 11H11C11.5523 11 12 11.4477 12 12C12 12.5523 11.5523 13 11 13H6C5.44772 13 5 12.5523 5 12Z" fill="currentColor"></path><path d="M3.5 4C3.5 4.69036 2.94036 5.25 2.25 5.25C1.55964 5.25 1 4.69036 1 4C1 3.30964 1.55964 2.75 2.25 2.75C2.94036 2.75 3.5 3.30964 3.5 4Z" fill="currentColor"></path><path d="M3.5 8C3.5 8.69036 2.94036 9.25 2.25 9.25C1.55964 9.25 1 8.69036 1 8C1 7.30964 1.55964 6.75 2.25 6.75C2.94036 6.75 3.5 7.30964 3.5 8Z" fill="currentColor"></path><path d="M3.5 12C3.5 12.6904 2.94036 13.25 2.25 13.25C1.55964 13.25 1 12.6904 1 12C1 11.3096 1.55964 10.75 2.25 10.75C2.94036 10.75 3.5 11.3096 3.5 12Z" fill="currentColor"></path></svg>