<svg xmlns="http://www.w3.org/2000/svg" viewBox="0 0 760 760" width="760" height="760" style="width: 100%; height: 100%; transform: translate3d(0px, 0px, 0px);" preserveAspectRatio="xMidYMid meet"><defs><clipPath id="__lottie_element_2769"><rect width="760" height="760" x="0" y="0"></rect></clipPath></defs><g clip-path="url(#__lottie_element_2769)"><g style="display: block;" transform="matrix(0.9999983906745911,0,0,0.9999983906745911,222.0001983642578,347)" opacity="1"><g opacity="1" transform="matrix(0.5035176277160645,-0.8639849424362183,0.8639849424362183,0.5035176277160645,175.41799926757812,50.81999969482422)"><path fill="rgb(209,240,246)" fill-opacity="1" d=" M155.45899963378906,-137.38400268554688 C74.14700317382812,-208.05099487304688 -29.56599998474121,-239.0449981689453 -98.60700225830078,-230.927001953125 C-182.1020050048828,-220.7519989013672 -314.21099853515625,-163.66799926757812 -311.697998046875,-61.61199951171875 C-308.3340148925781,75.04000091552734 -178.4429931640625,164.85499572753906 -71.05899810791016,202.7050018310547 C35.369998931884766,240.218994140625 156.74400329589844,241.5070037841797 208.88999938964844,187.6219940185547 C270.3219909667969,124.14199829101562 271.9100036621094,73.69300079345703 254.93299865722656,2.753000020980835 C245.54100036621094,-36.49300003051758 217.5749969482422,-83.4000015258789 155.45899963378906,-137.38400268554688z"></path></g></g><g style="display: block;" transform="matrix(1,0,0,0.4800001382827759,227.32998657226562,563.3756713867188)" opacity="1"><g opacity="1" transform="matrix(1,0,0,1,165.06900024414062,66.40899658203125)"><path fill="rgb(164,211,221)" fill-opacity="1" d=" M33.38999938964844,63.724998474121094 C92.19599914550781,63.724998474121094 125.0199966430664,30.347999572753906 138.51699829101562,22.506999969482422 C144.58900451660156,19.29199981689453 147.93499755859375,15.175000190734863 152.64599609375,11.6899995803833 C160.80299377441406,5.6529998779296875 160.8719940185547,-0.7990000247955322 162.48899841308594,-7.322000026702881 C164.81900024414062,-16.724000930786133 161.99400329589844,-25.976999282836914 153.51199340820312,-34.862998962402344 C148.30299377441406,-40.32099914550781 138.4239959716797,-44.0890007019043 128.36700439453125,-47.59299850463867 C104.5009994506836,-55.90800094604492 77.77899932861328,-60.54800033569336 49.040000915527344,-63.066001892089844 C13.732000350952148,-66.15899658203125 -21.042999267578125,-65.31500244140625 -56.07099914550781,-64.33499908447266 C-84.3550033569336,-63.542999267578125 -108.87899780273438,-58.91299819946289 -132.06300354003906,-52.4119987487793 C-143.2899932861328,-49.26300048828125 -149.42999267578125,-44.20000076293945 -154.29800415039062,-38.62200164794922 C-164.81900024414062,-26.56800079345703 -164.08200073242188,-14.105999946594238 -156.84800720214844,-1.409000039100647 C-153.072998046875,5.2170000076293945 -149.5019989013672,11.930999755859375 -144.00999450683594,18.30500030517578 C-134.8820037841797,28.89900016784668 -109.5989990234375,66.15899658203125 -3.13100004196167,63.42399978637695 C-3.13100004196167,63.42399978637695 33.38999938964844,63.724998474121094 33.38999938964844,63.724998474121094z"></path></g></g><g style="display: block;" transform="matrix(0.9848077893257141,-0.17364813387393951,0.17364813387393951,0.9848077893257141,95.95944213867188,298.9286804199219)" opacity="1"><g opacity="1" transform="matrix(1,0,0,1,58.42900085449219,77.9520034790039)"><path fill="rgb(40,54,44)" fill-opacity="1" d=" M16.93899917602539,77.7020034790039 C7.160999774932861,77.7020034790039 -12.0600004196167,63.244998931884766 -20.350000381469727,55.005001068115234 C-35.36600112915039,40.08000183105469 -43.590999603271484,29.63800048828125 -48.99300003051758,11.770000457763672 C-56.018001556396484,-11.468000411987305 -58.17900085449219,-58.483001708984375 -26.41699981689453,-72.41600036621094 C-12.3100004196167,-77.7020034790039 2.7109999656677246,-73.93099975585938 17.479999542236328,-63.887001037597656 C30.988000869750977,-54.71699905395508 44.20199966430664,-32.099998474121094 50.98400115966797,-14.708999633789062 C57.766998291015625,2.694000005722046 58.18000030517578,11.611000061035156 54.45000076293945,27.518999099731445 C50.37099838256836,44.90999984741211 40.395999908447266,57.5 26.368000030517578,62.97100067138672 C21.517000198364258,64.85900115966797 22.10700035095215,77.7020034790039 16.93899917602539,77.7020034790039z M-20.350000381469727,-55.78200149536133 C-31.158000946044922,-49.297000885009766 -36.784000396728516,-19.167999267578125 -26.834999084472656,6.367000102996826 C-21.660999298095703,19.641000747680664 -12.904000282287598,29.94300079345703 -3.056999921798706,36.63100051879883 C1.9019999504089355,40.012001037597656 8.814000129699707,46.112998962402344 18.339000701904297,42.37699890136719 C18.339000701904297,42.37699890136719 18.3439998626709,42.37699890136719 18.3439998626709,42.37699890136719 C27.850000381469727,38.678001403808594 31.56800079345703,28.316999435424805 32.94300079345703,22.46500015258789 C35.62200164794922,11.039999961853027 37.167999267578125,-4.327000141143799 32.06999969482422,-17.410999298095703 C26.895999908447266,-30.684999465942383 20.332000732421875,-45.380001068115234 9.913000106811523,-51.45800018310547 C3.427999973297119,-55.2400016784668 -9.00100040435791,-61.72700119018555 -20.350000381469727,-55.78200149536133z"></path></g><g opacity="1" transform="matrix(1,0,0,1,465.1719970703125,94.43900299072266)"><path fill="rgb(40,54,44)" fill-opacity="1" d=" M-25.288000106811523,62.97200012207031 C-25.288000106811523,62.97200012207031 -25.288000106811523,62.97200012207031 -25.288000106811523,62.97200012207031 C-39.314998626708984,57.500999450683594 -49.290000915527344,44.9109992980957 -53.36899948120117,27.520000457763672 C-57.0989990234375,11.611000061035156 -56.6870002746582,2.694000005722046 -49.90399932861328,-14.708000183105469 C-43.12200164794922,-32.0989990234375 -29.906999588012695,-54.715999603271484 -16.398000717163086,-63.887001037597656 C-1.6299999952316284,-73.93099975585938 13.392000198364258,-77.7020034790039 27.49799919128418,-72.41500091552734 C49.667999267578125,-61.97999954223633 57.0989990234375,-11.467000007629395 50.073001861572266,11.770999908447266 C44.67100143432617,29.63800048828125 36.44599914550781,40.08100128173828 21.430999755859375,55.005001068115234 C13.140999794006348,63.244998931884766 -6.079999923706055,77.7020034790039 -15.857999801635742,77.7020034790039 C-21.025999069213867,77.7020034790039 -20.437000274658203,64.86000061035156 -25.288000106811523,62.97200012207031z M-8.833000183105469,-51.45800018310547 C-19.25200080871582,-45.380001068115234 -25.81599998474121,-30.684999465942383 -30.989999771118164,-17.410999298095703 C-36.0880012512207,-4.327000141143799 -34.54100036621094,11.041000366210938 -31.86199951171875,22.46500015258789 C-30.48699951171875,28.316999435424805 -26.770000457763672,38.67900085449219 -17.264999389648438,42.37699890136719 C-17.264999389648438,42.37699890136719 -17.257999420166016,42.37699890136719 -17.257999420166016,42.37699890136719 C-7.732999801635742,46.11399841308594 -0.8209999799728394,40.01300048828125 4.138000011444092,36.63100051879883 C13.984999656677246,29.944000244140625 22.740999221801758,19.642000198364258 27.916000366210938,6.368000030517578 C37.8650016784668,-19.16699981689453 32.23899841308594,-49.29600143432617 21.430999755859375,-55.78099822998047 C10.081999778747559,-61.72600173950195 -2.3480000495910645,-55.24100112915039 -8.833000183105469,-51.45800018310547z"></path></g><g opacity="1" transform="matrix(1,0,0,1,258.572998046875,178.08099365234375)"><path fill="rgb(40,54,44)" fill-opacity="1" d=" M-20.621999740600586,-166.73699951171875 C-74.19400024414062,-160.59500122070312 -112.8290023803711,-146.6540069580078 -151.33399963378906,-118.1449966430664 C-190.91799926757812,-88.83599853515625 -213.02200317382812,-64.51399993896484 -203.6929931640625,-16.722999572753906 C-195.43800354003906,25.566999435424805 -179.98800659179688,49.10499954223633 -152.6199951171875,82.58300018310547 C-101.02400207519531,145.6959991455078 -18.420000076293945,167.79100036621094 58.24399948120117,142.10699462890625 C140.05999755859375,114.6989974975586 180.71400451660156,74.54199981689453 199.4409942626953,-4.831999778747559 C213.02200317382812,-62.387001037597656 190.0050048828125,-96.02899932861328 145.43699645996094,-127.3030014038086 C110.61900329589844,-151.73599243164062 68.81400299072266,-158.61000061035156 26.423999786376953,-165.1199951171875 C9.029999732971191,-167.79200744628906 -9.104999542236328,-166.43099975585938 -20.621999740600586,-166.73699951171875z"></path></g></g><g style="display: block;" transform="matrix(0.9848077893257141,-0.17364813387393951,0.17364813387393951,0.9848077893257141,169.92794799804688,313.4508361816406)" opacity="1"><g opacity="1" transform="matrix(1,0,0,1,208.0399932861328,166.3459930419922)"><path fill="rgb(252,247,154)" fill-opacity="1" d=" M-196.1020050048828,-41.59199905395508 C-201.9980010986328,-66.6240005493164 -174.1750030517578,-127.28199768066406 -131.93699645996094,-122.24199676513672 C-13.126999855041504,-108.06500244140625 37.393001556396484,-60.57099914550781 158.47900390625,-101.13500213623047 C225.1490020751953,9.090999603271484 -84.052001953125,161.71800231933594 -196.1020050048828,-41.59199905395508z"></path></g></g><g style="display: block;" transform="matrix(1,0,0,1,393.0694580078125,327.1745910644531)" opacity="1"><g opacity="1" transform="matrix(1,0,0,1,30.976999282836914,37.880001068115234)"><path fill="rgb(249,233,43)" fill-opacity="1" d=" M-11.949000358581543,-32.297000885009766 C-18.20800018310547,-32.297000885009766 -23.32900047302246,-29.333999633789062 -25.035999298095703,-22.222999572753906 C-26.743000030517578,-15.111000061035156 -30.726999282836914,0.8889999985694885 -29.589000701904297,10.963000297546387 C-28.451000213623047,21.03700065612793 -29.018999099731445,27.555999755859375 -22.760000228881836,31.702999114990234 C-16.500999450683594,35.85200119018555 -3.9830000400543213,36.44499969482422 3.9830000400543213,37.0369987487793 C11.947999954223633,37.630001068115234 16.500999450683594,35.85200119018555 21.621999740600586,31.11199951171875 C26.743000030517578,26.3700008392334 30.726999282836914,28.740999221801758 27.881999969482422,15.70300006866455 C25.03700065612793,2.6659998893737793 25.035999298095703,-4.445000171661377 21.621999740600586,-16.888999938964844 C18.20800018310547,-29.333999633789062 18.777000427246094,-32.88999938964844 10.810999870300293,-35.2599983215332 C2.8450000286102295,-37.630001068115234 -3.9830000400543213,-34.667999267578125 -7.9670000076293945,-34.07500076293945 C-11.949999809265137,-33.481998443603516 -11.949000358581543,-32.297000885009766 -11.949000358581543,-32.297000885009766z"></path></g></g><g style="display: block;" transform="matrix(1,0,0,1,325.9891662597656,339.285888671875)" opacity="1"><g opacity="1" transform="matrix(1,0,0,1,42.59299850463867,32.0880012512207)"><path fill="rgb(250,189,122)" fill-opacity="1" d=" M-17.510000228881836,-27.381000518798828 C-24.513999938964844,-16.555999755859375 -25.788000106811523,-13.373000144958496 -30.881999969482422,-6.368000030517578 C-35.97600173950195,0.6359999775886536 -42.34400177001953,8.277000427246094 -33.42900085449219,11.461000442504883 C-24.514999389648438,14.644000053405762 -21.33099937438965,18.46500015258789 -11.781000137329102,22.28499984741211 C-2.2290000915527344,26.104999542236328 4.776000022888184,31.83799934387207 11.781000137329102,31.201000213623047 C18.784000396728516,30.56399917602539 20.69499969482422,28.652999877929688 24.514999389648438,21.648000717163086 C28.336000442504883,14.644000053405762 32.15599822998047,7.004000186920166 34.70199966430664,0.6370000243186951 C37.249000549316406,-5.730999946594238 42.34400177001953,-10.189000129699707 35.97700119018555,-14.008999824523926 C29.610000610351562,-17.829999923706055 32.15700149536133,-20.37700080871582 18.148000717163086,-22.923999786376953 C4.138999938964844,-25.47100067138672 2.2279999256134033,-25.47100067138672 -2.2290000915527344,-28.65399932861328 C-6.685999870300293,-31.83799934387207 -17.510000228881836,-27.381000518798828 -17.510000228881836,-27.381000518798828z"></path></g></g><g style="display: block;" transform="matrix(1,0,0,1,282.3398132324219,370.6725769042969)" opacity="1"><g opacity="1" transform="matrix(1,0,0,1,45.763999938964844,27.60300064086914)"><path fill="rgb(250,189,122)" fill-opacity="1" d=" M-45.513999938964844,-5.810999870300293 C-38.45600128173828,7.513000011444092 -39.45399856567383,8.894000053405762 -27.766000747680664,14.645999908447266 C-16.077999114990234,20.39900016784668 -22.763999938964844,27.354000091552734 -3.7760000228881836,22.416000366210938 C15.211000442504883,17.47599983215332 30.73200035095215,9.255000114440918 38.124000549316406,3.632999897003174 C45.51499938964844,-1.9880000352859497 45.13100051879883,-4.343999862670898 34.470001220703125,-9.788000106811523 C23.80900001525879,-15.230999946594238 22.013999938964844,-20.25200080871582 10.03499984741211,-23.291000366210938 C-1.9450000524520874,-26.329999923706055 -1.6230000257492065,-27.35300064086914 -17.527000427246094,-21.48900032043457 C-33.430999755859375,-15.623000144958496 -38.47600173950195,-12.097999572753906 -41.49700164794922,-9.645000457763672 C-44.518001556396484,-7.190999984741211 -45.513999938964844,-5.810999870300293 -45.513999938964844,-5.810999870300293z"></path></g></g><g style="display: block;" transform="matrix(1,0,0,1,335.9222412109375,376.16839599609375)" opacity="1"><g opacity="1" transform="matrix(1,0,0,1,45.76499938964844,27.604000091552734)"><path fill="rgb(249,233,43)" fill-opacity="1" d=" M-45.513999938964844,-5.809999942779541 C-38.45600128173828,7.513000011444092 -39.45399856567383,8.895000457763672 -27.766000747680664,14.647000312805176 C-16.077999114990234,20.399999618530273 -22.763999938964844,27.354000091552734 -3.7760000228881836,22.415000915527344 C15.211000442504883,17.47599983215332 30.73200035095215,9.255000114440918 38.124000549316406,3.632999897003174 C45.51499938964844,-1.9880000352859497 45.13100051879883,-4.343999862670898 34.46900177001953,-9.788000106811523 C23.80900001525879,-15.232000350952148 22.01300048828125,-20.25200080871582 10.03499984741211,-23.291000366210938 C-1.9450000524520874,-26.33099937438965 -1.6230000257492065,-27.354000091552734 -17.527000427246094,-21.48900032043457 C-33.430999755859375,-15.62399959564209 -38.47600173950195,-12.097999572753906 -41.49700164794922,-9.645000457763672 C-44.518001556396484,-7.191999912261963 -45.513999938964844,-5.809999942779541 -45.513999938964844,-5.809999942779541z"></path></g></g><g style="display: block;" transform="matrix(1,0,0,1,415.9451904296875,390.0865783691406)" opacity="1"><g opacity="1" transform="matrix(1,0,0,1,40.111000061035156,30.22100067138672)"><path fill="rgb(249,233,43)" fill-opacity="1" d=" M-16.483999252319336,-25.775999069213867 C-23.077999114990234,-15.586000442504883 -24.275999069213867,-12.588000297546387 -29.07200050354004,-5.994999885559082 C-33.867000579833984,0.5989999771118164 -39.861000061035156,7.791999816894531 -31.4689998626709,10.788999557495117 C-23.077999114990234,13.786999702453613 -20.08099937438965,17.381999969482422 -11.088000297546387,20.979000091552734 C-2.0969998836517334,24.576000213623047 4.494999885559082,29.969999313354492 11.08899974822998,29.371000289916992 C17.683000564575195,28.77199935913086 19.481000900268555,26.972999572753906 23.07699966430664,20.3799991607666 C26.67300033569336,13.786999702453613 30.270000457763672,6.5929999351501465 32.66699981689453,0.5989999771118164 C35.066001892089844,-5.394999980926514 39.86199951171875,-9.590999603271484 33.86800003051758,-13.187999725341797 C27.87299919128418,-16.784000396728516 30.270999908447266,-19.180999755859375 17.08300018310547,-21.57900047302246 C3.8970000743865967,-23.97599983215332 2.0980000495910645,-23.976999282836914 -2.0969998836517334,-26.974000930786133 C-6.294000148773193,-29.97100067138672 -16.483999252319336,-25.775999069213867 -16.483999252319336,-25.775999069213867z"></path></g></g><g style="display: block;" transform="matrix(1,0,0,1,367.1700744628906,408.6340637207031)" opacity="1"><g opacity="1" transform="matrix(1,0,0,1,40.111000061035156,30.22100067138672)"><path fill="rgb(249,233,43)" fill-opacity="1" d=" M-16.483999252319336,-25.774999618530273 C-23.077999114990234,-15.586000442504883 -24.277000427246094,-12.588000297546387 -29.07200050354004,-5.994999885559082 C-33.867000579833984,0.5989999771118164 -39.861000061035156,7.791999816894531 -31.4689998626709,10.788999557495117 C-23.077999114990234,13.786999702453613 -20.08099937438965,17.382999420166016 -11.08899974822998,20.979999542236328 C-2.0980000495910645,24.576000213623047 4.494999885559082,29.97100067138672 11.08899974822998,29.371000289916992 C17.683000564575195,28.77199935913086 19.479999542236328,26.974000930786133 23.07699966430664,20.3799991607666 C26.67300033569336,13.786999702453613 30.270000457763672,6.5929999351501465 32.66699981689453,0.5989999771118164 C35.064998626708984,-5.394999980926514 39.86199951171875,-9.59000015258789 33.86800003051758,-13.187000274658203 C27.87299919128418,-16.784000396728516 30.270999908447266,-19.180999755859375 17.08300018310547,-21.579999923706055 C3.8959999084472656,-23.976999282836914 2.0980000495910645,-23.976999282836914 -2.0980000495910645,-26.974000930786133 C-6.294000148773193,-29.97100067138672 -16.483999252319336,-25.774999618530273 -16.483999252319336,-25.774999618530273z"></path></g></g><g style="display: block;" transform="matrix(1,0,0,1,317.7624206542969,407.5374450683594)" opacity="1"><g opacity="1" transform="matrix(1,0,0,1,37.698001861572266,28.672000885009766)"><path fill="rgb(250,189,122)" fill-opacity="1" d=" M-37.448001861572266,-0.04399999976158142 C-36.805999755859375,-7.697999954223633 -26.5,-8.881999969482422 -18.802000045776367,-14.211000442504883 C-11.104999542236328,-19.540000915527344 -4,-22.5 1.3289999961853027,-25.461000442504883 C6.6579999923706055,-28.422000885009766 4.881999969482422,-26.05299949645996 12.579999923706055,-20.131999969482422 C20.277999877929688,-14.211000442504883 19.684999465942383,-14.211000442504883 26.197999954223633,-8.881999969482422 C32.71200180053711,-3.552999973297119 37.448001861572266,0 32.71200180053711,4.144999980926514 C27.975000381469727,8.289999961853027 27.975000381469727,15.987000465393066 18.500999450683594,20.132999420166016 C9.027000427246094,24.277000427246094 6.066999912261963,28.422000885009766 -2.2230000495910645,23.093000411987305 C-10.512999534606934,17.763999938964844 -16.43400001525879,15.987000465393066 -24.724000930786133,11.25100040435791 C-33.01300048828125,6.513999938964844 -37.448001861572266,-0.04399999976158142 -37.448001861572266,-0.04399999976158142z"></path></g></g><g style="display: block;" transform="matrix(1,0,0,1,374.7486572265625,426.8716125488281)" opacity="1"><g opacity="1" transform="matrix(1,0,0,1,20.089000701904297,24.42099952697754)"><path fill="rgb(249,241,87)" fill-opacity="1" d=" M-18.402999877929688,-20.658000946044922 C-13.781999588012695,-24.17099952697754 -7.9039998054504395,-18.985000610351562 -1.0190000534057617,-17.361000061035156 C5.866000175476074,-15.737000465393066 11.123000144958496,-13.24899959564209 15.480999946594238,-11.755999565124512 C19.839000701904297,-10.262999534606934 17.61199951171875,-10.0600004196167 18.183000564575195,-2.744999885559082 C18.756000518798828,4.572000026702881 18.45599937438965,4.23799991607666 18.76099967956543,10.59000015258789 C19.065000534057617,16.941999435424805 19.466999053955078,21.39900016784668 14.744000434875488,20.836999893188477 C10.020999908447266,20.275999069213867 5.702000141143799,24.170000076293945 -1.4170000553131104,20.950000762939453 C-8.536999702453613,17.729999542236328 -12.362000465393066,18.166000366210938 -13.565999984741211,10.817000389099121 C-14.769000053405762,3.4679999351501465 -16.76799964904785,-0.7540000081062317 -18.304000854492188,-7.802999973297119 C-19.84000015258789,-14.85099983215332 -18.402999877929688,-20.658000946044922 -18.402999877929688,-20.658000946044922z"></path></g></g><g style="display: block;" transform="matrix(1,0,0,1,318.5130615234375,433.7279968261719)" opacity="1"><g opacity="1" transform="matrix(1,0,0,1,20.09000015258789,24.42099952697754)"><path fill="rgb(249,233,43)" fill-opacity="1" d=" M-18.402999877929688,-20.658000946044922 C-13.782999992370605,-24.17099952697754 -7.9039998054504395,-18.983999252319336 -1.0180000066757202,-17.360000610351562 C5.867000102996826,-15.737000465393066 11.12399959564209,-13.248000144958496 15.482000350952148,-11.755999565124512 C19.84000015258789,-10.26200008392334 17.61199951171875,-10.0600004196167 18.183000564575195,-2.74399995803833 C18.7549991607666,4.572000026702881 18.454999923706055,4.23799991607666 18.760000228881836,10.59000015258789 C19.065000534057617,16.94300079345703 19.468000411987305,21.399999618530273 14.744999885559082,20.83799934387207 C10.022000312805176,20.277000427246094 5.702000141143799,24.170000076293945 -1.4179999828338623,20.950000762939453 C-8.536999702453613,17.731000900268555 -12.361000061035156,18.166000366210938 -13.5649995803833,10.817999839782715 C-14.769000053405762,3.4690001010894775 -16.76799964904785,-0.7519999742507935 -18.30299949645996,-7.801000118255615 C-19.84000015258789,-14.850000381469727 -18.402999877929688,-20.658000946044922 -18.402999877929688,-20.658000946044922z"></path></g></g><g style="display: block;" transform="matrix(0.882947564125061,-0.4694715738296509,0.4694715738296509,0.882947564125061,255.5706329345703,344.0933837890625)" opacity="1"><g opacity="1" transform="matrix(1,0,0,1,37.49599838256836,34.861000061035156)"><path fill="rgb(249,233,43)" fill-opacity="1" d=" M37.244998931884766,4.578000068664551 C35.63800048828125,13.840999603271484 25.23699951171875,14.220000267028809 16.9060001373291,19.920000076293945 C8.574999809265137,25.6200008392334 1.1330000162124634,28.4950008392334 -4.541999816894531,31.554000854492188 C-10.217000007629395,34.611000061035156 -8.151000022888184,31.908000946044922 -15.057999610900879,23.895999908447266 C-21.96500015258789,15.883999824523926 -21.375999450683594,15.944999694824219 -27.18000030517578,8.777000427246094 C-32.98400115966797,1.6089999675750732 -37.24599838256836,-3.2100000381469727 -32.0099983215332,-7.77400016784668 C-26.77400016784668,-12.336000442504883 -25.798999786376953,-21.718000411987305 -15.85200023651123,-25.79199981689453 C-5.9039998054504395,-29.864999771118164 -2.434999942779541,-34.611000061035156 5.13700008392334,-27.260000228881836 C12.706999778747559,-19.908000946044922 18.371999740600586,-17.131999969482422 26.01799964904785,-10.501999855041504 C33.66400146484375,-3.871999979019165 37.244998931884766,4.578000068664551 37.244998931884766,4.578000068664551z"></path></g></g><g style="display: block;" transform="matrix(0.7660444378852844,-0.6427876353263855,0.6427876353263855,0.7660444378852844,431.92425537109375,198.05918884277344)" opacity="1"><g opacity="1" transform="matrix(1,0,0,1,26.680999755859375,18.652000427246094)"><path fill="rgb(249,233,43)" fill-opacity="1" d=" M-18.9060001373291,13.168999671936035 C-23.246000289916992,7.935999870300293 -26.430999755859375,4.416999816894531 -22.535999298095703,1.1019999980926514 C-18.639999389648438,-2.2139999866485596 -17.93000030517578,-9.048999786376953 -10.522000312805176,-12 C-3.11299991607666,-14.949999809265137 -0.5350000262260437,-18.402999877929688 5.122000217437744,-13.032999992370605 C10.779999732971191,-7.663000106811523 15.006999969482422,-5.629000186920166 20.7189998626709,-0.7839999794960022 C26.430999755859375,4.060999870300293 -14.565999984741211,18.402000427246094 -18.9060001373291,13.168999671936035z"></path></g></g><g style="display: block;" transform="matrix(0.9902680516242981,0.13917306065559387,-0.13917306065559387,0.9902680516242981,336.54034423828125,173.5298614501953)" opacity="1"><g opacity="1" transform="matrix(1,0,0,1,21.20800018310547,19.05500030517578)"><path fill="rgb(249,233,43)" fill-opacity="1" d=" M-20.402000427246094,-1.878000020980835 C-20.607999801635742,-8.673999786376953 -20.95800018310547,-13.406000137329102 -15.847000122070312,-13.628000259399414 C-10.736000061035156,-13.848999977111816 -5.97599983215332,-18.804000854492188 1.6820000410079956,-16.57699966430664 C9.34000015258789,-14.35099983215332 13.494999885559082,-15.48900032043457 14.656999588012695,-7.775000095367432 C15.817999839782715,-0.06300000101327896 17.902999877929688,4.139999866485596 19.430999755859375,11.472000122070312 C20.95800018310547,18.804000854492188 -20.195999145507812,4.918000221252441 -20.402000427246094,-1.878000020980835z"></path></g></g><g style="display: block;" transform="matrix(0.9659258127212524,-0.258819043636322,0.258819043636322,0.9659258127212524,445.6174621582031,315.3077087402344)" opacity="1"><g opacity="1" transform="matrix(1,0,0,1,37.14099884033203,27.819000244140625)"><path fill="rgb(249,233,43)" fill-opacity="1" d=" M35.571998596191406,-11.062000274658203 C36.89099884033203,-3.494999885559082 27.22100067138672,0.2639999985694885 21.125999450683594,7.36899995803833 C15.031000137329102,14.47599983215332 8.907999992370605,19.141000747680664 4.502999782562256,23.354999542236328 C0.09799999743700027,27.569000244140625 1.2170000076293945,24.82699966430664 -7.730999946594238,21.049999237060547 C-16.67799949645996,17.273000717163086 -16.104999542236328,17.12299919128418 -23.756000518798828,13.619000434875488 C-31.406999588012695,10.11400032043457 -36.89099884033203,7.880000114440918 -33.35900115966797,2.6700000762939453 C-29.826000213623047,-2.5409998893737793 -31.777999877929688,-9.98799991607666 -23.663000106811523,-16.398000717163086 C-15.550000190734863,-22.80900001525879 -13.737000465393066,-27.56800079345703 -4.366000175476074,-24.513999938964844 C5.002999782562256,-21.459999084472656 11.180999755859375,-21.243000030517578 20.400999069213867,-18.76099967956543 C29.6200008392334,-16.280000686645508 35.571998596191406,-11.062000274658203 35.571998596191406,-11.062000274658203z"></path></g></g><g style="display: block;" transform="matrix(1,0,0,1,213.66673278808594,410.6042175292969)" opacity="1"><g opacity="1" transform="matrix(1,0,0,1,26.61400032043457,16.6560001373291)"><path fill="rgb(249,233,43)" fill-opacity="1" d=" M-25.48200035095215,16.4060001373291 C-26.36400032043457,9.925000190734863 -23.448999404907227,4.75 -19.045000076293945,-0.8050000071525574 C-14.640000343322754,-6.360000133514404 -10.312999725341797,-9.932000160217285 -7.13700008392334,-13.168999671936035 C-3.9619998931884766,-16.4060001373291 1.1640000343322754,-14.258999824523926 7.51800012588501,-10.420999526977539 C13.871999740600586,-6.583000183105469 11.607999801635742,-3.625999927520752 17.038999557495117,-0.11299999803304672 C22.469999313354492,3.4010000228881836 26.36400032043457,5.685999870300293 23.804000854492188,9.82699966430664 C21.243000030517578,13.968000411987305 -25.48200035095215,16.4060001373291 -25.48200035095215,16.4060001373291z"></path></g></g><g style="display: block;" transform="matrix(0.6018152236938477,-0.7986353635787964,0.7986353635787964,0.6018152236938477,326.5540466308594,274.3631286621094)" opacity="1"><g opacity="1" transform="matrix(1,0,0,1,40.67599868774414,33.03799819946289)"><path fill="rgb(249,233,43)" fill-opacity="1" d=" M-39.064998626708984,11.628999710083008 C-40.42599868774414,2.625 -29.80500030517578,-1.5080000162124634 -23.058000564575195,-9.723999977111816 C-16.31100082397461,-17.940000534057617 -17.155000686645508,-19.600000381469727 -12.289999961853027,-24.44700050354004 C-7.423999786376953,-29.29400062561035 -1.3279999494552612,-32.7869987487793 8.664999961853027,-24.983999252319336 C17.288999557495117,-18.25200080871582 17.785999298095703,-20.06100082397461 26.118999481201172,-15.66100025177002 C34.452999114990234,-11.26200008392334 40.426998138427734,-8.4350004196167 36.50600051879883,-2.380000114440918 C32.584999084472656,3.6740000247955322 34.63800048828125,12.555999755859375 25.68899917602539,19.882999420166016 C16.742000579833984,27.209999084472656 14.706000328063965,32.78799819946289 4.48799991607666,28.864999771118164 C-5.730999946594238,24.94300079345703 -12.48799991607666,24.48200035095215 -22.548999786376953,21.243000030517578 C-32.60900115966797,18.003999710083008 -39.064998626708984,11.628999710083008 -39.064998626708984,11.628999710083008z"></path></g></g><g style="display: block;" transform="matrix(0.48480990529060364,0.8746195435523987,-0.8746195435523987,0.48480990529060364,391.59759521484375,276.0367431640625)" opacity="1"><g opacity="1" transform="matrix(1,0,0,1,31.673999786376953,34.582000732421875)"><path fill="rgb(249,233,43)" fill-opacity="1" d=" M-25.173999786376953,33.902000427246094 C-31.423999786376953,28.097999572753906 -25.739999771118164,17.898000717163086 -25.365999221801758,7.249000072479248 C-24.992000579833984,-3.4010000228881836 -22.94099998474121,-11.894000053405762 -22.04800033569336,-18.770000457763672 C-21.15399932861328,-25.645999908447266 -20.24799919128418,-22.41200065612793 -10.074000358581543,-25.391000747680664 C0.10100000351667404,-28.368999481201172 -0.2849999964237213,-27.829999923706055 8.60200023651123,-30.132999420166016 C17.48900032043457,-32.43600082397461 23.67099952697754,-34.33100128173828 24.19499969482422,-27.187999725341797 C24.7189998626709,-20.045000076293945 31.423999786376953,-14.79800033569336 28.86199951171875,-3.3369998931884766 C26.298999786376953,8.12399959564209 27.979999542236328,13.64900016784668 17.93600082397461,17.570999145507812 C7.890999794006348,21.493000030517578 2.484999895095825,25.68000030517578 -7.044000148773193,30.006000518798828 C-16.572999954223633,34.332000732421875 -25.173999786376953,33.902000427246094 -25.173999786376953,33.902000427246094z"></path></g></g><g style="display: block;" transform="matrix(1,0,0,1,370.744384765625,373.8267517089844)" opacity="1"><g opacity="1" transform="matrix(1,0,0,1,43.09199905395508,31.78700065612793)"><path fill="rgb(250,189,122)" fill-opacity="1" d=" M-36.43000030517578,-3.888000011444092 C-29.625999450683594,-8.48799991607666 -23.964000701904297,-9.854999542236328 -15.92300033569336,-15.767999649047852 C-7.88100004196167,-21.680999755859375 -0.4580000042915344,-24.968000411987305 5.110000133514404,-28.253000259399414 C10.675999641418457,-31.538000106811523 8.819999694824219,-28.909000396728516 16.86199951171875,-22.339000701904297 C24.902999877929688,-15.769000053405762 24.28499984741211,-15.767999649047852 31.089000701904297,-9.854999542236328 C37.89400100708008,-3.941999912261963 42.84199905395508,0.0010000000474974513 37.89400100708008,4.599999904632568 C32.94499969482422,9.199000358581543 32.94499969482422,17.739999771118164 23.04800033569336,22.34000015258789 C13.151000022888184,26.93899917602539 10.057999610900879,31.538000106811523 1.3980000019073486,25.625 C-7.263000011444092,19.711999893188477 -12.677000045776367,16.18000030517578 -22.107999801635742,12.482999801635742 C-42.84199905395508,4.355000019073486 -36.43000030517578,-3.888000011444092 -36.43000030517578,-3.888000011444092z"></path></g></g><g style="display: block;" transform="matrix(1,0,0,1,270.720703125,406.33544921875)" opacity="1"><g opacity="1" transform="matrix(1,0,0,1,38.970001220703125,28.437999725341797)"><path fill="rgb(250,189,122)" fill-opacity="1" d=" M-38.720001220703125,8.843000411987305 C-27.753000259399414,17.384000778198242 -28.058000564575195,18.908000946044922 -16.111000061035156,19.40399932861328 C-4.163000106811523,19.89900016784668 -7.093999862670898,28.187999725341797 6.873000144958496,17.041000366210938 C20.840999603271484,5.894999980926514 30.663000106811523,-6.7179999351501465 34.69200134277344,-14.152000427246094 C38.720001220703125,-21.586999893188477 37.50199890136719,-23.41699981689453 26.52899932861328,-24.033000946044922 C15.557000160217285,-24.649999618530273 12.145000457763672,-28.187999725341797 0.9879999756813049,-26.30500030517578 C-10.168999671936035,-24.423999786376953 -10.289999961853027,-25.398000717163086 -21.33099937438965,-14.616000175476074 C-32.37200164794922,-3.8329999446868896 -35.2400016784668,0.9810000061988831 -36.82699966430664,4.150000095367432 C-38.41400146484375,7.318999767303467 -38.720001220703125,8.843000411987305 -38.720001220703125,8.843000411987305z"></path></g></g><g style="display: block;" transform="matrix(0.8480481505393982,0.5299191474914551,-0.5299191474914551,0.8480481505393982,411.1583557128906,229.294677734375)" opacity="1"><g opacity="1" transform="matrix(1,0,0,1,38.9109992980957,38.18000030517578)"><path fill="rgb(133,198,138)" fill-opacity="1" d=" M34.44200134277344,-19.304000854492188 C33.58599853515625,-21.229999542236328 31.774999618530273,-23.198999404907227 29.851999282836914,-23.854999542236328 C27.798999786376953,-24.55500030517578 26.235000610351562,-23.658000946044922 24.893999099731445,-22.777999877929688 C22.356000900268555,-21.111000061035156 19.81800079345703,-19.44499969482422 17.277999877929688,-17.777000427246094 C15.329999923706055,-16.496999740600586 10.791000366210938,-12.722999572753906 7.265999794006348,-14.664999961853027 C2.7119998931884766,-17.173999786376953 3.441999912261963,-19.40999984741211 2.6530001163482666,-22.981000900268555 C1.9780000448226929,-26.030000686645508 1.5260000228881836,-30.336000442504883 -0.8289999961853027,-33.15299987792969 C-3.181999921798706,-35.96900177001953 -7.23199987411499,-37.93000030517578 -9.187999725341797,-36.51499938964844 C-10.213000297546387,-35.775001525878906 -10.468999862670898,-34.310001373291016 -10.541000366210938,-32.85100173950195 C-10.961999893188477,-24.422000885009766 -7.959000110626221,-14.932999610900879 -8.932999610900879,-7.3480000495910645 C-9.434000015258789,-3.437000036239624 -8.263999938964844,0.7549999952316284 -11.335000038146973,2.2100000381469727 C-12.548999786376953,2.4860000610351562 -13.77400016784668,2.484999895095825 -14.897000312805176,1.8669999837875366 C-19.45199966430664,-0.6430000066757202 -20.5,-8.442000389099121 -21.288999557495117,-12.01200008392334 C-21.964000701904297,-15.060999870300293 -22.985000610351562,-18.358999252319336 -25.339000701904297,-21.174999237060547 C-27.69300079345703,-23.990999221801758 -31.743000030517578,-25.95199966430664 -33.69900131225586,-24.538000106811523 C-34.7239990234375,-23.79599952697754 -34.979000091552734,-22.33300018310547 -35.051998138427734,-20.874000549316406 C-35.472999572753906,-12.446000099182129 -28.766000747680664,1.8980000019073486 -31.097000122070312,9.180000305175781 C-32.46799850463867,13.465999603271484 -33.49300003051758,16.481000900268555 -34.48099899291992,18.718000411987305 C-38.6609992980957,28.170000076293945 -37.45199966430664,32.71099853515625 -34.492000579833984,35.46699905395508 C-31.84600067138672,37.93000030517578 -28.374000549316406,36.303001403808594 -25.656999588012695,35.94200134277344 C-24.236000061035156,35.75299835205078 -20.354000091552734,33.34299850463867 -19.1299991607666,32.28200149536133 C-18.340999603271484,31.209999084472656 -17.35099983215332,30.9060001373291 -17.35099983215332,30.9060001373291 C-12.890000343322754,28.288999557495117 -4.275000095367432,31.298999786376953 1.8040000200271606,32.84400177001953 C5.4679999351501465,33.7760009765625 9.371999740600586,34.96500015258789 12.309000015258789,34.08300018310547 C15.246000289916992,33.20100021362305 16.496999740600586,29.225000381469727 13.725000381469727,25.84000015258789 C11.885000228881836,23.591999053955078 9.093999862670898,22.51300048828125 6.689000129699707,22.024999618530273 C4.283999919891357,21.538000106811523 1.8869999647140503,21.405000686645508 -0.5649999976158142,20.17799949645996 C-1.6619999408721924,19.301000595092773 -1.4539999961853027,17.47599983215332 -0.08799999952316284,16.263999938964844 C1.5570000410079956,15.083999633789062 4.811999797821045,14.37600040435791 4.811999797821045,14.37600040435791 C9.27400016784668,11.758999824523926 17.888999938964844,14.769000053405762 23.968000411987305,16.31599998474121 C27.631999969482422,17.24799919128418 31.535999298095703,18.433000564575195 34.47200012207031,17.551000595092773 C37.40999984741211,16.670000076293945 38.6609992980957,12.694999694824219 35.888999938964844,9.307999610900879 C34.04899978637695,7.060999870300293 31.257999420166016,5.984000205993652 28.85300064086914,5.497000217437744 C26.447999954223633,5.008999824523926 24.049999237060547,4.875 21.597999572753906,3.6480000019073486 C21.003000259399414,0.5509999990463257 22.55299949645996,-1.7070000171661377 24.586999893188477,-3.114000082015991 C26.621000289916992,-4.519000053405762 29.160999298095703,-5.308000087738037 31.118999481201172,-6.801000118255615 C33.257999420166016,-8.432999610900879 34.64899826049805,-10.902000427246094 35.099998474121094,-13.866999626159668 C35.349998474121094,-15.51099967956543 35.29899978637695,-17.378000259399414 34.44200134277344,-19.304000854492188z"></path></g></g><g style="display: block;" transform="matrix(0.9702957272529602,-0.2419218271970749,0.2419218271970749,0.9702957272529602,317.4010314941406,385.6396789550781)" opacity="1"><g opacity="1" transform="matrix(1,0,0,1,4.829999923706055,31.8799991607666)"><path fill="rgb(253,252,217)" fill-opacity="1" d=" M-4.829999923706055,-28.014999389648438 C-4.829999923706055,-28.014999389648438 -4.185999870300293,28.65999984741211 -4.185999870300293,28.65999984741211 C-4.185999870300293,28.65999984741211 4.829999923706055,31.8799991607666 4.829999923706055,31.8799991607666 C4.829999923706055,31.8799991607666 2.8980000019073486,-31.878999710083008 2.8980000019073486,-31.878999710083008 C2.8980000019073486,-31.878999710083008 -4.829999923706055,-28.014999389648438 -4.829999923706055,-28.014999389648438z"></path></g></g><g style="display: block;" transform="matrix(0.9271838665008545,-0.37460649013519287,0.37460649013519287,0.9271838665008545,321.95654296875,279.32904052734375)" opacity="1"><g opacity="1" transform="matrix(1,0,0,1,23.93400001525879,16.16699981689453)"><path fill="rgb(253,252,217)" fill-opacity="1" d=" M17.606000900268555,-15.916999816894531 C17.606000900268555,-15.916999816894531 -23.683000564575195,7.834000110626221 -23.683000564575195,7.834000110626221 C-23.683000564575195,7.834000110626221 -22.260000228881836,15.916999816894531 -22.260000228881836,15.916999816894531 C-22.260000228881836,15.916999816894531 23.683000564575195,-11.708000183105469 23.683000564575195,-11.708000183105469 C23.683000564575195,-11.708000183105469 17.606000900268555,-15.916999816894531 17.606000900268555,-15.916999816894531z"></path></g></g><g style="display: block;" transform="matrix(0.9510565400123596,-0.3090169131755829,0.3090169131755829,0.9510565400123596,435.7816467285156,362.02276611328125)" opacity="1"><g opacity="1" transform="matrix(1,0,0,1,22.790000915527344,19.804000854492188)"><path fill="rgb(253,252,217)" fill-opacity="1" d=" M-22.790000915527344,-11.767000198364258 C-22.790000915527344,-11.767000198364258 14.788999557495117,19.80299949645996 14.788999557495117,19.80299949645996 C14.788999557495117,19.80299949645996 22.790000915527344,14.79800033569336 22.790000915527344,14.79800033569336 C22.790000915527344,14.79800033569336 -20.274999618530273,-19.80299949645996 -20.274999618530273,-19.80299949645996 C-20.274999618530273,-19.80299949645996 -22.790000915527344,-11.767000198364258 -22.790000915527344,-11.767000198364258z"></path></g></g><g style="display: block;" transform="matrix(0.40673696994781494,0.9135453104972839,-0.9135453104972839,0.40673696994781494,375.9179992675781,178.51722717285156)" opacity="1"><g opacity="1" transform="matrix(1,0,0,1,44,61.21500015258789)"><path fill="rgb(225,57,35)" fill-opacity="1" d=" M34.30799865722656,-36.875999450683594 C34.30799865722656,-36.875999450683594 28.444000244140625,-31.423999786376953 25.082000732421875,-26.072999954223633 C21.719999313354492,-20.722999572753906 20.670000076293945,-17.93899917602539 18.399999618530273,-14.524999618530273 C16.128999710083008,-11.112000465393066 8.494000434875488,-1.0260000228881836 5.234000205993652,3.6449999809265137 C1.975000023841858,8.315999984741211 -12.373000144958496,21.295000076293945 -17.749000549316406,24.3700008392334 C-20.591999053955078,25.996000289916992 -34.422000885009766,31.250999450683594 -35.7140007019043,31.288000106811523 C-37.00600051879883,31.322999954223633 -39.630001068115234,30.207000732421875 -39.775001525878906,28.354999542236328 C-39.895999908447266,26.81100082397461 -39.57099914550781,24.985000610351562 -39.459999084472656,24.41900062561035 C-39.44499969482422,24.344999313354492 -39.5099983215332,24.30500030517578 -39.57600021362305,24.351999282836914 C-40.09000015258789,24.722999572753906 -41.775001525878906,25.972000122070312 -42.527000427246094,26.937000274658203 C-43.42100143432617,28.083999633789062 -43.650001525878906,28.461999893188477 -43.98099899291992,30.864999771118164 C-44.31100082397461,33.266998291015625 -40.60900115966797,39.922000885009766 -32.03499984741211,39.9739990234375 C-29.47100067138672,39.99100112915039 -14.470999717712402,37.22100067138672 -10.130000114440918,35.027000427246094 C-5.751999855041504,32.814998626708984 8.11400032043457,23.69499969482422 10.736000061035156,21.200000762939453 C16.106000900268555,16.086000442504883 27.74799919128418,3.138000011444092 30.985000610351562,-1.1690000295639038 C34.22100067138672,-5.47599983215332 41.263999938964844,-18.40399932861328 42.79600143432617,-22.64699935913086 C44.32899856567383,-26.891000747680664 44.10200119018555,-31.486000061035156 43.709999084472656,-34.51300048828125 C43.319000244140625,-37.53900146484375 42.48400115966797,-39.604000091552734 40.74700164794922,-39.95199966430664 C39.012001037597656,-40.29899978637695 34.30799865722656,-36.875999450683594 34.30799865722656,-36.875999450683594z"></path></g><g opacity="1" transform="matrix(1,0,0,1,88.1709976196289,14.449000358581543)"><path fill="rgb(23,128,130)" fill-opacity="1" d=" M1.0549999475479126,6.566999912261963 C1.4229999780654907,8.217000007629395 3.5250000953674316,11.36400032043457 1.2359999418258667,12.71500015258789 C-1.0520000457763672,14.067000389099121 -0.9729999899864197,11.25 -2.1649999618530273,11.331000328063965 C-3.3550000190734863,11.411999702453613 -5.521999835968018,15.088000297546387 -6.11899995803833,14.35099983215332 C-6.715000152587891,13.61299991607666 -4.236999988555908,9.317999839782715 -5.9770002365112305,10.03499984741211 C-7.716000080108643,10.75100040435791 -10.005999565124512,12.10200023651123 -9.227999687194824,10.553999900817871 C-8.45199966430664,9.005999565124512 -2.7109999656677246,6.64300012588501 -1.2829999923706055,4.991000175476074 C0.14399999380111694,3.3389999866485596 3.9240000247955322,0.39100000262260437 4.196000099182129,-2.259000062942505 C4.4670000076293945,-4.908999919891357 7.080999851226807,-9.751999855041504 6.622000217437744,-11.036999702453613 C6.1620001792907715,-12.321000099182129 7.552000045776367,-14.449000358581543 7.552000045776367,-14.449000358581543 C7.552000045776367,-14.449000358581543 9.385000228881836,-13.975000381469727 9.385000228881836,-13.975000381469727 C9.385000228881836,-13.975000381469727 8.809000015258789,-12.918999671936035 8.345000267028809,-10.435999870300293 C7.880000114440918,-7.952000141143799 6.4039998054504395,-2.3489999771118164 5.607999801635742,-1.0390000343322754 C4.811999797821045,0.2709999978542328 1.0549999475479126,6.566999912261963 1.0549999475479126,6.566999912261963z"></path></g></g></g></svg>