<svg xmlns="http://www.w3.org/2000/svg" viewBox="0 0 760 760" width="760" height="760" style="width: 100%; height: 100%; transform: translate3d(0px, 0px, 0px);" preserveAspectRatio="xMidYMid meet"><defs><clipPath id="__lottie_element_2852"><rect width="760" height="760" x="0" y="0"></rect></clipPath></defs><g clip-path="url(#__lottie_element_2852)"><g style="display: block;" transform="matrix(0,0,0,0,344,348)" opacity="1"><g opacity="1" transform="matrix(1,0,0,1,189.6909942626953,-1.996000051498413)"><path fill="rgb(209,240,246)" fill-opacity="1" d=" M118,-148 C-7.690999984741211,-264.0039978027344 -134.6909942626953,-283.0039978027344 -246,-210 C-324.9989929199219,-170.6909942626953 -367.6910095214844,-43.00400161743164 -315,67 C-288.96600341796875,121.35199737548828 -244.66700744628906,235.4669952392578 -98,299.0010070800781 C-65.69100189208984,312.9960021972656 121.30899810791016,368.9960021972656 239,272 C299.7409973144531,221.94000244140625 268.3080139160156,43.99599838256836 243,1 C219.08299255371094,-39.63199996948242 178.4759979248047,-92.18499755859375 118,-148z"></path></g></g><g style="display: block;" transform="matrix(1,0,0,1,236.83299255371094,401.0329895019531)" opacity="1"><g opacity="1" transform="matrix(1,0,0,1,177.8520050048828,135.53500366210938)"><path fill="rgb(168,214,223)" fill-opacity="1" d=" M157.0050048828125,-58.45899963378906 C185.97999572753906,-29.91699981689453 181.76100158691406,2.3959999084472656 162.55499267578125,38.000999450683594 C147.55099487304688,65.81500244140625 141.01100158691406,66.427001953125 121.22599792480469,89.23999786376953 C112.52899932861328,99.26899719238281 97.90499877929688,103.64299774169922 90.30599975585938,108.24099731445312 C52.38999938964844,125.1510009765625 24.518999099731445,137.406005859375 -10.904999732971191,135.2989959716797 C-47.321998596191406,133.13299560546875 -59.736000061035156,118.08100128173828 -80.58499908447266,85.25 C-92.7020034790039,66.1709976196289 -82.27300262451172,69.3219985961914 -100.4280014038086,46.749000549316406 C-100.4280014038086,46.749000549316406 -173.67300415039062,9.854000091552734 -173.67300415039062,9.854000091552734 C-190.6739959716797,-13.420000076293945 -151.2740020751953,-12.73900032043457 -136.46099853515625,-24.854000091552734 C-121.64700317382812,-36.96699905395508 -10.62600040435791,-116.60199737548828 4.188000202178955,-128.71499633789062 C19.000999450683594,-140.82899475097656 30.1200008392334,-135.05099487304688 42.81700134277344,-124.98699951171875 C51.17399978637695,-118.36299896240234 71.30899810791016,-102.85299682617188 85.26200103759766,-91.85399627685547 C112.35900115966797,-89.83699798583984 135.66099548339844,-79.48300170898438 157.0050048828125,-58.45899963378906z"></path></g><g opacity="1" transform="matrix(1,0,0,1,0,0)"><path fill="rgb(168,214,223)" fill-opacity="1" d=" M742.1669921875,-36.53300094604492"></path></g></g><g style="display: block;" transform="matrix(1,0,0,1,156.4969940185547,235.32699584960938)" opacity="1"><g opacity="1" transform="matrix(1,0,0,1,214.26100158691406,171.19400024414062)"><path fill="rgb(40,54,44)" fill-opacity="1" d=" M208.9239959716797,-27.191999435424805 C214.01100158691406,-81.34300231933594 182.31199645996094,-114.15299987792969 132.656005859375,-139.10000610351562 C93.86399841308594,-158.58900451660156 51.73699951171875,-167.6750030517578 8.211999893188477,-169.99200439453125 C-9.64799976348877,-170.9429931640625 -27.608999252319336,-168.11399841308594 -39.20100021362305,-167.39599609375 C-91.91899871826172,-157.08200073242188 -134.97900390625,-142.2220001220703 -169.031005859375,-112.60600280761719 C-204.03700256347656,-82.16000366210938 -214.00999450683594,-46.35499954223633 -197.0449981689453,-3.125999927520752 C-185.76699829101562,25.608999252319336 -172.94400024414062,42.78499984741211 -153.3719940185547,61.619998931884766 C-153.3719940185547,61.619998931884766 -149.19700622558594,109.89800262451172 -149.19700622558594,109.89800262451172 C-146.63999938964844,148.95399475097656 -141.7949981689453,159.07000732421875 -116.52300262451172,161.18600463867188 C-91.25199890136719,163.302001953125 -84.90799713134766,148.29600524902344 -80.60399627685547,127.29299926757812 C-79.55599975585938,122.1780014038086 -78.34700012207031,116.96299743652344 -77.11000061035156,111.88400268554688 C-21.28700065612793,130.8730010986328 42.56999969482422,124.05599975585938 78.39900207519531,111.69400024414062 C79.5270004272461,111.30500030517578 80.56999969482422,110.89099884033203 81.68399810791016,110.49700164794922 C81.68399810791016,110.49700164794922 82.55699920654297,125.41600036621094 82.55699920654297,125.41600036621094 C85.2750015258789,162.54299926757812 88.67500305175781,166.71200561523438 113.94599914550781,168.8280029296875 C139.21800231933594,170.9429931640625 145.56500244140625,155.93699645996094 149.86700439453125,134.9340057373047 C152.69900512695312,121.11100006103516 159.9040069580078,88.30699920654297 164.6840057373047,65.29399871826172 C190.38900756835938,42.1870002746582 205.177001953125,12.696999549865723 208.9239959716797,-27.191999435424805z"></path></g></g><g style="display: block;" transform="matrix(1,0,0,1,173.86000061035156,245.7849884033203)" opacity="1"><g opacity="1" transform="matrix(1,0,0,1,211.83799743652344,172.24600219726562)"><path fill="rgb(128,185,128)" fill-opacity="1" d=" M-191.31700134277344,-30.201000213623047 C-211.58799743652344,-54.62699890136719 -162.10899353027344,-116.24500274658203 -128.57699584960938,-132.26800537109375 C-45.435001373291016,-171.99600219726562 104.18499755859375,-156.27200317382812 172.88699340820312,-79.91000366210938 C211.58799743652344,-36.89400100708008 -23.527000427246094,171.99600219726562 -191.31700134277344,-30.201000213623047z"></path></g></g><g style="display: block;" transform="matrix(1,0,0,1,266.9100036621094,346.9110107421875)" opacity="1"><g opacity="1" transform="matrix(1,0,0,1,15.444999694824219,13.32699966430664)"><path fill="rgb(255,47,7)" fill-opacity="1" d=" M-15.444000244140625,-10.369000434875488 C-15.444000244140625,-10.369000434875488 -14.788000106811523,9.324999809265137 -14.788000106811523,9.324999809265137 C-14.788000106811523,9.324999809265137 4.218999862670898,13.326000213623047 4.218999862670898,13.326000213623047 C4.218999862670898,13.326000213623047 15.444000244140625,-13.326000213623047 15.444000244140625,-13.326000213623047 C15.444000244140625,-13.326000213623047 -15.444000244140625,-10.369000434875488 -15.444000244140625,-10.369000434875488z"></path></g></g><g style="display: block;" transform="matrix(1,0,0,1,342.2659912109375,296.8979797363281)" opacity="1"><g opacity="1" transform="matrix(1,0,0,1,13.041000366210938,12.390999794006348)"><path fill="rgb(255,47,7)" fill-opacity="1" d=" M-10.095999717712402,-12.390999794006348 C-10.095999717712402,-12.390999794006348 -13.039999961853027,-0.9610000252723694 -13.039999961853027,-0.9610000252723694 C-13.039999961853027,-0.9610000252723694 -1.9600000381469727,12.390999794006348 -1.9600000381469727,12.390999794006348 C-1.9600000381469727,12.390999794006348 9.567000389099121,11.305000305175781 9.567000389099121,11.305000305175781 C9.567000389099121,11.305000305175781 13.039999961853027,-7.572999954223633 13.039999961853027,-7.572999954223633 C13.039999961853027,-7.572999954223633 -10.095999717712402,-12.390999794006348 -10.095999717712402,-12.390999794006348z"></path></g></g><g style="display: block;" transform="matrix(1,0,0,1,337.9100036621094,375.8290100097656)" opacity="1"><g opacity="1" transform="matrix(1,0,0,1,12.149999618530273,12.831999778747559)"><path fill="rgb(255,47,7)" fill-opacity="1" d=" M-7.513000011444092,-10.86299991607666 C-7.513000011444092,-10.86299991607666 -12.151000022888184,7.6570000648498535 -12.151000022888184,7.6570000648498535 C-12.151000022888184,7.6570000648498535 12.149999618530273,12.831999778747559 12.149999618530273,12.831999778747559 C12.149999618530273,12.831999778747559 11.395999908447266,-12.831999778747559 11.395999908447266,-12.831999778747559 C11.395999908447266,-12.831999778747559 -7.513000011444092,-10.86299991607666 -7.513000011444092,-10.86299991607666z"></path></g></g><g style="display: block;" transform="matrix(1,0,0,1,460.30902099609375,311.4309997558594)" opacity="1"><g opacity="1" transform="matrix(1,0,0,1,45.17499923706055,21.340999603271484)"><path fill="rgb(114,166,114)" fill-opacity="1" d=" M22.562000274658203,-21.340999603271484 C22.562000274658203,-21.340999603271484 38.29399871826172,-10.532999992370605 45.17499923706055,-2.808000087738037 C41.93199920654297,1.1519999504089355 -45.17499923706055,21.340999603271484 -45.17499923706055,21.340999603271484 C-45.17499923706055,21.340999603271484 22.562000274658203,-21.340999603271484 22.562000274658203,-21.340999603271484z"></path></g></g><g style="display: block;" transform="matrix(0.8571673035621643,-0.5150380730628967,0.5150380730628967,0.8571673035621643,336.38330078125,240.36964416503906)" opacity="1"><g opacity="1" transform="matrix(1,0,0,1,105.0530014038086,82.22799682617188)"><path fill="rgb(249,241,87)" fill-opacity="1" d=" M96.9000015258789,71.52100372314453 C104.8030014038086,63.305999755859375 17.92799949645996,-81.26499938964844 4.288000106811523,-81.6780014038086 C-5.5929999351501465,-81.97799682617188 -50.93299865722656,-10.498000144958496 -77.53700256347656,35.722999572753906 C-104.802001953125,81.97799682617188 -83.05599975585938,74.11100006103516 -51.95100021362305,80.47000122070312 C-4.764999866485596,81.02899932861328 65.75,75.97200012207031 89.20999908447266,73.93800354003906 C94.25599670410156,73.5 96.9000015258789,71.52100372314453 96.9000015258789,71.52100372314453z"></path></g><g opacity="1" transform="matrix(1,0,0,1,98.7030029296875,76.76100158691406)"><path fill="rgb(246,225,1)" fill-opacity="1" d=" M-1.9359999895095825,-7.072000026702881 C-6.26800012588501,-6.729000091552734 -8.003000259399414,-2.74399995803833 -7.589000225067139,-0.11100000143051147 C-7.175000190734863,2.5239999294281006 -2.009999990463257,1.0369999408721924 -2.255000114440918,3.7750000953674316 C-2.499000072479248,6.51200008392334 4.672999858856201,7.072000026702881 6.3379998207092285,4.784999847412109 C8.003000259399414,2.499000072479248 7.448999881744385,3.260999917984009 5.4070000648498535,-1.1410000324249268 C3.365999937057495,-5.544000148773193 -1.9359999895095825,-7.072000026702881 -1.9359999895095825,-7.072000026702881z"></path></g><g opacity="1" transform="matrix(1,0,0,1,98.39099884033203,57.5099983215332)"><path fill="rgb(246,225,1)" fill-opacity="1" d=" M-1.5570000410079956,-4.4070000648498535 C-5.960000038146973,-2.365000009536743 -10.291999816894531,-2.0220000743865967 -7.798999786376953,0.9599999785423279 C-5.306000232696533,3.943000078201294 -4.125,0.7200000286102295 -1.2510000467300415,3.9800000190734863 C1.6230000257492065,7.238999843597412 4.741000175476074,7.761000156402588 6.580999851226807,4.435999870300293 C8.420000076293945,1.1100000143051147 10.291999816894531,0.14100000262260437 9.670999526977539,-3.809999942779541 C9.048999786376953,-7.761000156402588 8.772000312805176,-7.380000114440918 5.375999927520752,-7.520999908447266 C1.9789999723434448,-7.6620001792907715 -1.5570000410079956,-4.4070000648498535 -1.5570000410079956,-4.4070000648498535z"></path></g><g opacity="1" transform="matrix(1,0,0,1,83.71700286865234,98.96900177001953)"><path fill="rgb(246,225,1)" fill-opacity="1" d=" M1.1970000267028809,-2.5989999771118164 C-1.9910000562667847,-1.4229999780654907 -5.355000019073486,0.7929999828338623 -2.5139999389648438,1.6959999799728394 C0.328000009059906,2.5989999771118164 3.3429999351501465,2.4619998931884766 4.348999977111816,0.27900001406669617 C5.355000019073486,-1.902999997138977 1.1970000267028809,-2.5989999771118164 1.1970000267028809,-2.5989999771118164z"></path></g><g opacity="1" transform="matrix(1,0,0,1,125.62000274658203,80.68099975585938)"><path fill="rgb(246,225,1)" fill-opacity="1" d=" M-0.8980000019073486,-4.764999866485596 C-3.7769999504089355,-1.6139999628067017 -5.64900016784668,-0.6439999938011169 -3.5369999408721924,2.059999942779541 C-1.4249999523162842,4.763999938964844 -0.765999972820282,4.660999774932861 1.6610000133514404,2.930000066757202 C4.086999893188477,1.1990000009536743 5.64900016784668,-1.74399995803833 4.783999919891357,-2.9579999446868896 C3.9179999828338623,-4.171999931335449 -0.8980000019073486,-4.764999866485596 -0.8980000019073486,-4.764999866485596z"></path></g></g><g style="display: block;" transform="matrix(1,0,0,1,380,380)" opacity="1"><g opacity="1" transform="matrix(1,0,0,1,0,0)"><path fill="rgb(128,185,128)" fill-opacity="1" d=" M37.375,-53 C37.375,-53 10.5,-7 10.5,-7 C10.5,-7 68.5,-1 68.5,-1 C68.5,-1 99.625,-29 83.625,-26 C67.625,-23 37.375,-53 37.375,-53z"></path></g></g></g></svg>