<svg xmlns="http://www.w3.org/2000/svg" viewBox="0 0 760 760" width="760" height="760" style="width: 100%; height: 100%; transform: translate3d(0px, 0px, 0px);" preserveAspectRatio="xMidYMid meet"><defs><clipPath id="__lottie_element_2638"><rect width="760" height="760" x="0" y="0"></rect></clipPath></defs><g clip-path="url(#__lottie_element_2638)"><g style="display: block;" transform="matrix(0,0,0,0,344,301)" opacity="1"><g opacity="1" transform="matrix(0.5035176277160645,-0.8639849424362183,0.8639849424362183,0.5035176277160645,175.41799926757812,50.81999969482422)"><path fill="rgb(209,240,246)" fill-opacity="1" d=" M159.15499877929688,-198.56700134277344 C86.87899780273438,-278.4519958496094 8.392999649047852,-297.0469970703125 -60.64899826049805,-288.9289855957031 C-188.7740020751953,-275.89300537109375 -271.72100830078125,-211.64999389648438 -304.62298583984375,-115.01000213623047 C-364.7619934082031,61.630001068115234 -202.51800537109375,207.09500122070312 -106.71700286865234,268.6260070800781 C39.939998626708984,362.8210144042969 125.26899719238281,288.7860107421875 177.4149932861328,234.9010009765625 C238.8470001220703,171.42100524902344 291.0150146484375,77.76300048828125 273.57501220703125,6.934999942779541 C251.60299682617188,-82.30000305175781 192.75399780273438,-161.43099975585938 159.15499877929688,-198.56700134277344z"></path></g></g><g style="display: block;" transform="matrix(0.9999999403953552,0,0,0.9999999403953552,97.22702026367188,322.87799072265625)" opacity="1"><g opacity="1" transform="matrix(1,0,0,1,285.5299987792969,159.96600341796875)"><path fill="rgb(168,215,224)" fill-opacity="1" d=" M-282.7650146484375,11.722999572753906 C-282.7650146484375,11.722999572753906 -167.2239990234375,158.18299865722656 -124.91400146484375,159.81100463867188 C-82.60299682617188,161.43800354003906 -63.07600021362305,150.04600524902344 -28.900999069213867,140.2830047607422 C5.2729997634887695,130.5189971923828 277.0369873046875,55.6609992980957 285.1730041503906,31.250999450683594 C293.30999755859375,6.841000080108643 159.85699462890625,-144.322998046875 119.99299621582031,-158.24400329589844 C80.12999725341797,-172.1649932861328 -177.94500732421875,-97.50800323486328 -207.9080047607422,-84.28900146484375 C-255.4810028076172,-63.29899978637695 -296.7569885253906,-9.843000411987305 -282.7650146484375,11.722999572753906z"></path></g></g><g style="display: block;" transform="matrix(1,0,0,1,95.62799072265625,237.7990264892578)" opacity="1"><g opacity="1" transform="matrix(1,0,0,1,274.114013671875,149.44400024414062)"><path fill="rgb(62,105,107)" fill-opacity="1" d=" M-259.01300048828125,-21.614999771118164 C-262.3819885253906,-13.73799991607666 -242.83799743652344,48.12099838256836 -225.92799377441406,70.1510009765625 C-199.5399932861328,104.5250015258789 -141.30599975585938,144.74400329589844 -133.05499267578125,146.968994140625 C-124.80500030517578,149.19400024414062 101.22599792480469,105.08399963378906 188.97500610351562,64.75599670410156 C261.0249938964844,31.64299964904785 262.3819885253906,24.559999465942383 260.7460021972656,21.075000762939453 C259.1099853515625,17.59000015258789 158.11900329589844,-149.19400024414062 148.4219970703125,-148.06199645996094 C138.72500610351562,-146.92999267578125 -143.322998046875,-68.6780014038086 -174.92100524902344,-55.1870002746582 C-206.5189971923828,-41.698001861572266 -253.99099731445312,-33.358001708984375 -259.01300048828125,-21.614999771118164z"></path></g><g opacity="1" transform="matrix(1,0,0,1,267.55499267578125,243.42599487304688)"><path fill="rgb(83,139,142)" fill-opacity="1" d=" M-92.8479995727539,117.37799835205078 C-88.927001953125,119.43099975585938 87.1510009765625,64.48300170898438 122.5199966430664,52.720001220703125 C157.88800048828125,40.95600128173828 220.93099975585938,14.5649995803833 220.93099975585938,14.5649995803833 C220.93099975585938,14.5649995803833 267.30499267578125,-72.09300231933594 267.30499267578125,-72.09300231933594 C267.30499267578125,-72.09300231933594 112.86499786376953,-7.86299991607666 72.36799621582031,1.9900000095367432 C31.8700008392334,11.843999862670898 -126.20099639892578,53.3129997253418 -126.20099639892578,53.3129997253418 C-126.20099639892578,53.3129997253418 -251.68699645996094,-119.43099975585938 -251.68699645996094,-119.43099975585938 C-251.68699645996094,-119.43099975585938 -267.30499267578125,-9.413999557495117 -176.9320068359375,60.14400100708008 C-121.16799926757812,103.06400299072266 -92.8479995727539,117.37799835205078 -92.8479995727539,117.37799835205078z"></path></g></g><g style="display: block;" transform="matrix(1,0,0,1,82.55300903320312,204.76502990722656)" opacity="1"><g opacity="1" transform="matrix(1,0,0,1,181.33299255371094,230.5760040283203)"><path fill="rgb(243,213,13)" fill-opacity="1" d=" M-50.117000579833984,-52.816001892089844 C-50.117000579833984,-52.816001892089844 -63.084999084472656,15.04800033569336 -63.084999084472656,15.04800033569336 C-63.084999084472656,15.04800033569336 55.472999572753906,52.816001892089844 55.472999572753906,52.816001892089844 C55.472999572753906,52.816001892089844 63.084999084472656,-30.395999908447266 63.084999084472656,-30.395999908447266 C63.084999084472656,-30.395999908447266 -50.117000579833984,-52.816001892089844 -50.117000579833984,-52.816001892089844z"></path></g><g opacity="1" transform="matrix(1,0,0,1,369.5790100097656,174.97799682617188)"><path fill="rgb(243,213,13)" fill-opacity="1" d=" M-41.2130012512207,-69.03700256347656 C-41.2130012512207,-69.03700256347656 -123.29100036621094,69.9749984741211 -123.29100036621094,69.9749984741211 C-123.29100036621094,69.9749984741211 -73.26300048828125,98.54199981689453 -73.26300048828125,98.54199981689453 C-73.26300048828125,98.54199981689453 28.527000427246094,79.28800201416016 28.527000427246094,79.28800201416016 C28.527000427246094,79.28800201416016 95.9530029296875,4.244999885559082 95.9530029296875,4.244999885559082 C95.9530029296875,4.244999885559082 123.29100036621094,-50.018001556396484 123.29100036621094,-50.018001556396484 C123.29100036621094,-50.018001556396484 78.22200012207031,-98.54199981689453 78.22200012207031,-98.54199981689453 C78.22200012207031,-98.54199981689453 -20.040000915527344,-91.16899871826172 -20.040000915527344,-91.16899871826172 C-20.040000915527344,-91.16899871826172 -41.2130012512207,-69.03700256347656 -41.2130012512207,-69.03700256347656z"></path></g><g opacity="1" transform="matrix(1,0,0,1,457.9360046386719,205.6790008544922)"><path fill="rgb(247,227,0)" fill-opacity="1" d=" M-67.22100067138672,66.44000244140625 C-55.196998596191406,73.83899688720703 -47.12699890136719,81.88200378417969 -40.31700134277344,80.62799835205078 C-33.50699996948242,79.37200164794922 10.390000343322754,15.343999862670898 21.764999389648438,4.940000057220459 C33.138999938964844,-5.4629998207092285 82.3010025024414,-59.38600158691406 82.48600006103516,-63.534000396728516 C82.6719970703125,-67.68199920654297 43.81700134277344,-81.88200378417969 34.93299865722656,-80.72000122070312 C26.048999786376953,-79.55699920654297 6.2270002365112305,-54.46200180053711 -7.63700008392334,-34.81700134277344 C-21.500999450683594,-15.17199993133545 -75.8030014038086,37.481998443603516 -79.23799896240234,44.60300064086914 C-82.6719970703125,51.722999572753906 -71.77300262451172,63.638999938964844 -67.22100067138672,66.44000244140625z"></path></g><g opacity="1" transform="matrix(1,0,0,1,229.01199340820312,278.489990234375)"><path fill="rgb(247,227,0)" fill-opacity="1" d=" M-99.83000183105469,6.176000118255615 C-95.95999908447266,19.7549991607666 -95.44300079345703,31.13599967956543 -89.572998046875,34.81100082397461 C-83.7040023803711,38.48500061035156 -8.086000442504883,20.91900062561035 7.328999996185303,20.93000030517578 C22.743999481201172,20.94099998474121 95.41799926757812,14.383999824523926 98.35600280761719,11.449000358581543 C101.29499816894531,8.515999794006348 82.23400115966797,-28.197999954223633 74.89700317382812,-33.34199905395508 C67.56099700927734,-38.48500061035156 35.99399948120117,-33.36800003051758 12.50100040435791,-28.246000289916992 C-10.991999626159668,-23.124000549316406 -86.5989990234375,-20.974000930786133 -93.94100189208984,-18.042999267578125 C-101.28399658203125,-15.112000465393066 -101.29499816894531,1.0369999408721924 -99.83000183105469,6.176000118255615z"></path></g><g opacity="1" transform="matrix(1,0,0,1,228.46400451660156,151.24400329589844)"><path fill="rgb(243,213,13)" fill-opacity="1" d=" M52.599998474121094,-48.167999267578125 C52.599998474121094,-48.167999267578125 33.064998626708984,48.167999267578125 33.064998626708984,48.167999267578125 C33.064998626708984,48.167999267578125 -52.599998474121094,9.017999649047852 -52.599998474121094,9.017999649047852 C-52.599998474121094,9.017999649047852 52.599998474121094,-48.167999267578125 52.599998474121094,-48.167999267578125z"></path></g><g opacity="1" transform="matrix(1,0,0,1,238.33399963378906,109.95600128173828)"><path fill="rgb(247,238,93)" fill-opacity="1" d=" M-117.40599822998047,66.2030029296875 C-115.63999938964844,70.80000305175781 -100.96900177001953,94.35099792480469 -92.2020034790039,95.20500183105469 C-83.43499755859375,96.05699920654297 -34.67599868774414,57.28799819946289 -18.125,46.361000061035156 C-1.5750000476837158,35.433998107910156 73.76200103759766,-33.9370002746582 83.59500122070312,-44.042999267578125 C93.4280014038086,-54.14899826049805 116.55400085449219,-64.43699645996094 116.9800033569336,-68.81999969482422 C117.40599822998047,-73.2040023803711 94.34300231933594,-93.88500213623047 90.76200103759766,-94.97100067138672 C87.18000030517578,-96.05699920654297 16.756000518798828,-46.858001708984375 7.723999977111816,-37.4119987487793 C-1.3070000410079956,-27.96500015258789 -117.40599822998047,66.2030029296875 -117.40599822998047,66.2030029296875z"></path></g><g opacity="1" transform="matrix(1,0,0,1,283,142.6750030517578)"><path fill="rgb(247,238,93)" fill-opacity="1" d=" M-87.50299835205078,121.04000091552734 C-80.00499725341797,128.29400634765625 -67.4520034790039,140.8699951171875 -61.44900131225586,141.64700317382812 C-55.44599914550781,142.4250030517578 -10.45199966430664,84.7030029296875 1.0180000066757202,62.672000885009766 C12.48799991607666,40.64099884033203 53.64099884033203,-37.32600021362305 63.87200164794922,-63.64699935913086 C74.10099792480469,-89.96700286865234 87.50299835205078,-114.44100189208984 87.1259994506836,-124.00399780273438 C86.74800109863281,-133.56700134277344 61.327999114990234,-142.4250030517578 54.680999755859375,-142.38800048828125 C48.034000396728516,-142.3509979248047 3.868000030517578,-52.20899963378906 -2.9240000247955322,-34.417999267578125 C-9.715999603271484,-16.628000259399414 -58.03799819946289,69.56400299072266 -66.06900024414062,83.06500244140625 C-74.10099792480469,96.56600189208984 -87.50299835205078,121.04000091552734 -87.50299835205078,121.04000091552734z"></path></g><g opacity="1" transform="matrix(1,0,0,1,317.7959899902344,59.04499816894531)"><path fill="rgb(247,227,0)" fill-opacity="1" d=" M36.305999755859375,-17.76799964904785 C36.733001708984375,-22.152000427246094 13.668999671936035,-42.832000732421875 10.086999893188477,-43.917999267578125 C9.71399974822998,-44.03099822998047 8.607999801635742,-43.59199905395508 6.929999828338623,-42.715999603271484 C-7.065999984741211,-18.79599952697754 -28.760000228881836,25.606000900268555 -36.733001708984375,44.03099822998047 C-17.95199966430664,26.941999435424805 -1.3459999561309814,11.395000457763672 2.9200000762939453,7.008999824523926 C12.753999710083008,-3.0969998836517334 35.87900161743164,-13.385000228881836 36.305999755859375,-17.76799964904785z"></path></g><g opacity="1" transform="matrix(1,0,0,1,429.60699462890625,132.67799377441406)"><path fill="rgb(250,243,157)" fill-opacity="1" d=" M118.27300262451172,-72.677001953125 C121.63999938964844,-58.0890007019043 120.30400085449219,-42.61399841308594 112.87899780273438,-36.57400131225586 C105.45600128173828,-30.53499984741211 29.643999099731445,10.092000007629395 10.8100004196167,19.68000030517578 C-8.02400016784668,29.26799964904785 -87.18900299072266,79.15399932861328 -97.51799774169922,72.96900177001953 C-107.84700012207031,66.78500366210938 -121.63999938964844,49.91999816894531 -119.87799835205078,46.01900100708008 C-118.11699676513672,42.11800003051758 -37.845001220703125,1.7100000381469727 -18.368000030517578,-8.692000389099121 C1.1109999418258667,-19.094999313354492 47.880001068115234,-48.94200134277344 61.95199966430664,-55.018001556396484 C76.02300262451172,-61.09400177001953 116.77799987792969,-79.15399932861328 118.27300262451172,-72.677001953125z"></path></g><g opacity="1" transform="matrix(1,0,0,1,139.45599365234375,150.9010009765625)"><path fill="rgb(245,225,1)" fill-opacity="1" d=" M-50.16899871826172,136.65199279785156 C-55.75899887084961,126.31300354003906 -60.69200134277344,91.55999755859375 -56.94900131225586,78.56099700927734 C-53.20600128173828,65.56300354003906 -13.265000343322754,-12.89900016784668 -10.567000389099121,-27.34600067138672 C-7.869999885559082,-41.79199981689453 11.904999732971191,-120.25499725341797 19.740999221801758,-128.23500061035156 C27.577999114990234,-136.21600341796875 38.047000885009766,-136.6529998779297 44.4640007019043,-134.26100158691406 C50.880001068115234,-131.86900329589844 53.69499969482422,-122.7770004272461 57.194000244140625,-115.33399963378906 C60.69300079345703,-107.89199829101562 49.73400115966797,-66.572998046875 46.35200119018555,-50.47600173950195 C42.97100067138672,-34.37900161743164 17.270000457763672,53.4109992980957 12.661999702453613,66.51000213623047 C8.053999900817871,79.61000061035156 -3.565000057220459,92.74299621582031 -11.994999885559082,103.14800262451172 C-20.424999237060547,113.5530014038086 -50.16899871826172,136.65199279785156 -50.16899871826172,136.65199279785156z"></path></g><g opacity="1" transform="matrix(1,0,0,1,123.62899780273438,119.98799896240234)"><path fill="rgb(247,238,93)" fill-opacity="1" d=" M-54.388999938964844,-84.50800323486328 C-58.1349983215332,-81.66899871826172 -74.38200378417969,-43.51900100708008 -74.13800048828125,-40.244998931884766 C-73.89399719238281,-36.97100067138672 19.915000915527344,48.755001068115234 34.724998474121094,66.41699981689453 C49.5359992980957,84.0780029296875 49.19599914550781,88.52300262451172 52.347999572753906,86.64299774169922 C55.5,84.76300048828125 70.14199829101562,69.18900299072266 70.28500366210938,62.26599884033203 C70.4280014038086,55.34299850463867 74.38200378417969,71.15799713134766 62.21500015258789,53.62900161743164 C50.047000885009766,36.10100173950195 -20.365999221801758,-47.53799819946289 -29.027000427246094,-57.75699996948242 C-37.6870002746582,-67.9749984741211 -49.09199905395508,-88.52300262451172 -54.388999938964844,-84.50800323486328z"></path></g><g opacity="1" transform="matrix(1,0,0,1,226.0760040283203,188.79400634765625)"><path fill="rgb(248,241,154)" fill-opacity="1" d=" M-164.77000427246094,-19.7189998626709 C-164.77000427246094,-19.7189998626709 -151.3939971923828,-63.40399932861328 -141.1009979248047,-63.86600112915039 C-130.8090057373047,-64.3280029296875 28.53700065612793,-9.763999938964844 54.94200134277344,1.1950000524520874 C81.3479995727539,12.154000282287598 148.19400024414062,21.350000381469727 148.19400024414062,21.350000381469727 C148.19400024414062,21.350000381469727 164.77000427246094,43.06399917602539 162.3159942626953,53.696998596191406 C159.86199951171875,64.3290023803711 113.21099853515625,57.21099853515625 100.08799743652344,58.742000579833984 C86.96399688720703,60.275001525878906 -41.005001068115234,21.26300048828125 -54.7239990234375,17.69099998474121 C-68.44300079345703,14.118000030517578 -163.36000061035156,-13.970999717712402 -164.77000427246094,-19.7189998626709z"></path></g><g opacity="1" transform="matrix(1,0,0,1,222.2239990234375,237.2209930419922)"><path fill="rgb(247,238,93)" fill-opacity="1" d=" M-218.14100646972656,-47.244998931884766 C-214.30799865722656,-55.13100051879883 -81.3219985961914,-13.90999984741211 -59.36199951171875,-10.4350004196167 C-30.70400047302246,-5.901000022888184 73.51599884033203,-1.1929999589920044 99.4469985961914,0.8809999823570251 C125.37899780273438,2.9549999237060547 209.5800018310547,-2.7850000858306885 215.77699279785156,0.9200000166893005 C221.9739990234375,4.625 173.5070037841797,55.13100051879883 158.80299377441406,52.957000732421875 C144.10000610351562,50.784000396728516 -6.120999813079834,44.71500015258789 -27.44099998474121,43.17599868774414 C-42.525001525878906,42.08700180053711 -164.59500122070312,9.163000106811523 -170.0260009765625,8.281000137329102 C-175.45599365234375,7.400000095367432 -221.9739990234375,-39.35900115966797 -218.14100646972656,-47.244998931884766z"></path></g><g opacity="1" transform="matrix(1,0,0,1,313.32598876953125,234.15699768066406)"><path fill="rgb(248,233,51)" fill-opacity="1" d=" M9.939000129699707,-13.237000465393066 C6.826000213623047,-14.020000457763672 -10.35099983215332,-5.4629998207092285 -29.854000091552734,4.734000205993652 C-9.119999885559082,10.21399974822998 7.349999904632568,14.020000457763672 11.62600040435791,13.520999908447266 C14.843999862670898,13.145999908447266 20.08099937438965,13.289999961853027 26.184999465942383,13.565999984741211 C28.562999725341797,11.616999626159668 29.85300064086914,10.253999710083008 29.676000595092773,9.706000328063965 C28.548999786376953,6.2129998207092285 16.65399932861328,-11.545999526977539 9.939000129699707,-13.237000465393066z"></path></g></g><g style="display: block;" transform="matrix(1,0,0,1,338.67303466796875,204.61297607421875)" opacity="1"><g opacity="1" transform="matrix(1,0,0,1,108.95800018310547,122.85199737548828)"><path fill="rgb(246,229,34)" fill-opacity="1" d=" M-108.58599853515625,92.5999984741211 C-108.46399688720703,99.97599792480469 -80.697998046875,122.60099792480469 -65.64199829101562,118.6259994506836 C-50.58700180053711,114.6520004272461 9.61299991607666,57.78799819946289 21.565000534057617,42.67599868774414 C38.308998107910156,21.506999969482422 108.70800018310547,-103.47599792480469 108.33100128173828,-113.03900146484375 C107.95500183105469,-122.60199737548828 61.63399887084961,-114.23799896240234 61.63399887084961,-114.23799896240234 C61.63399887084961,-114.23799896240234 33.76100158691406,-68.12200164794922 18.81599998474121,-44.207000732421875 C3.871000051498413,-20.29199981689453 -31.086999893188477,34.779998779296875 -64.08899688720703,62.28099822998047 C-78.09700012207031,73.9530029296875 -108.70800018310547,85.2239990234375 -108.58599853515625,92.5999984741211z"></path></g></g><g style="display: block;" transform="matrix(1,0,0,1,398.6099548339844,346.23809814453125)" opacity="1"><g opacity="1" transform="matrix(1,0,0,1,137.69500732421875,38.02799987792969)"><path fill="rgb(248,241,154)" fill-opacity="1" d=" M-121.50499725341797,-4.170000076293945 C-117.12999725341797,-4.681000232696533 -63.94300079345703,-17.540000915527344 -51.54899978637695,-18.986000061035156 C-39.15399932861328,-20.433000564575195 2.5360000133514404,-30.472000122070312 29.76799964904785,-31.43400001525879 C57,-32.39500045776367 95.3010025024414,-39.821998596191406 108.12100219726562,-37.62300109863281 C120.94000244140625,-35.42399978637695 129.94500732421875,-34.257999420166016 131.52499389648438,-27.052000045776367 C133.10499572753906,-19.84600067138672 141.49099731445312,1.3459999561309814 135.6580047607422,2.0260000228881836 C129.8249969482422,2.7070000171661377 73.98899841308594,5.5289998054504395 59.40700149536133,7.230000019073486 C44.82600021362305,8.932999610900879 -75.09700012207031,32.5369987487793 -89.4229965209961,36.426998138427734 C-103.7490005493164,40.314998626708984 -132.2209930419922,36.98699951171875 -136.9720001220703,27.93400001525879 C-141.7239990234375,18.882999420166016 -121.50499725341797,-4.170000076293945 -121.50499725341797,-4.170000076293945z"></path></g></g><g style="display: block;" transform="matrix(1,0,0,1,153.4149932861328,249.15301513671875)" opacity="1"><g opacity="1" transform="matrix(1,0,0,1,215.01100158691406,49.40399932861328)"><path fill="rgb(248,241,154)" fill-opacity="1" d=" M-204.8509979248047,49.15299987792969 C-204.8509979248047,49.15299987792969 -214.76100158691406,38.21699905395508 -213.6790008544922,27.006999969482422 C-212.59800720214844,15.795999526977539 -214.6719970703125,5.961999893188477 -208.64999389648438,6.367000102996826 C-202.6269989013672,6.7729997634887695 -15.939000129699707,-21.66900062561035 16.275999069213867,-22.104000091552734 C48.49100112915039,-22.538000106811523 172.0570068359375,-49.15299987792969 182.63699340820312,-40.4119987487793 C193.2169952392578,-31.67099952697754 214.76100158691406,-10.906999588012695 209.1219940185547,-8.031999588012695 C203.48199462890625,-5.1570000648498535 76.41000366210938,11.892000198364258 27.14900016784668,19.858999252319336 C-22.11199951171875,27.825000762939453 -204.8509979248047,49.15299987792969 -204.8509979248047,49.15299987792969z"></path></g></g><g style="display: block;" transform="matrix(1,0,0,1,144.63697814941406,292.76605224609375)" opacity="1"><g opacity="1" transform="matrix(1,0,0,1,141.75399780273438,212.11199951171875)"><path fill="rgb(248,241,154)" fill-opacity="1" d=" M-138.7779998779297,51.362998962402344 C-136.85000610351562,55.650001525878906 -103.31099700927734,80.03299713134766 -100.06600189208984,80.52899932861328 C-96.82099914550781,81.0250015258789 42.04899978637695,4.623000144958496 62.58000183105469,-5.854000091552734 C83.11000061035156,-16.329999923706055 141.5030059814453,-52.89699935913086 140.3769989013672,-56.38999938964844 C139.25,-59.882999420166016 127.35299682617188,-77.64299774169922 120.63899993896484,-79.33399963378906 C113.92400360107422,-81.0250015258789 41.784000396728516,-39.25199890136719 21.974000930786133,-31.32200050354004 C2.1649999618530273,-23.392000198364258 -95.125,26.489999771118164 -107.02400207519531,32.64099884033203 C-118.9229965209961,38.79199981689453 -141.50399780273438,45.30099868774414 -138.7779998779297,51.362998962402344z"></path></g><g opacity="1" transform="matrix(1,0,0,1,161.87399291992188,126.99600219726562)"><path fill="rgb(185,102,47)" fill-opacity="1" d=" M-115.51200103759766,-71.76200103759766 C-91.1510009765625,-97.5989990234375 -51.512001037597656,-60.762001037597656 -20.511999130249023,-52.762001037597656 C5.938000202178955,-45.93600082397461 28.488000869750977,-35.762001037597656 69.48799896240234,-20.761999130249023 C90.12799835205078,-13.211000442504883 120.93099975585938,-16.499000549316406 133.48800659179688,-7.76200008392334 C146.0449981689453,0.9750000238418579 115.12899780273438,41.124000549316406 102.85099792480469,51.63800048828125 C92.39600372314453,60.59199905395508 71.27899932861328,41.17399978637695 60.117000579833984,54.6150016784668 C48.95600128173828,68.05599975585938 48.775001525878906,81.3499984741211 27.652000427246094,80.8030014038086 C-3.009999990463257,80.00900268554688 -24.344999313354492,60.14099884033203 -37.361000061035156,55.672000885009766 C-58.92300033569336,48.26599884033203 -73.13500213623047,53.50400161743164 -90.48699951171875,59.37699890136719 C-113.93399810791016,67.31199645996094 -144.38800048828125,48.35100173950195 -134.52499389648438,28.895999908447266 C-130.12899780273438,20.22599983215332 -113.84200286865234,27.469999313354492 -106.16799926757812,12.684000015258789 C-98.49500274658203,-2.1010000705718994 -148.51199340820312,-36.762001037597656 -115.51200103759766,-71.76200103759766z"></path></g><g opacity="1" transform="matrix(1,0,0,1,275.04998779296875,53.891998291015625)"><path fill="rgb(185,102,47)" fill-opacity="1" d=" M-26.68000030517578,-40.40299987792969 C4.698999881744385,-37.74700164794922 34.09600067138672,-60.78799819946289 49.084999084472656,-51.79800033569336 C72.50900268554688,-37.74700164794922 104.83999633789062,-47.2239990234375 115.66200256347656,-33.42399978637695 C129.22300720214844,-16.131000518798828 136.3939971923828,-17.301000595092773 148.9499969482422,-8.5649995803833 C161.5070037841797,0.1720000058412552 156.9530029296875,11.227999687194824 144.6750030517578,21.743000030517578 C134.22000122070312,30.69700050354004 113.10299682617188,11.277999877929688 101.94100189208984,24.7189998626709 C90.77999877929688,38.15999984741211 90.5989990234375,51.45399856567383 69.47599792480469,50.90800094604492 C38.81399917602539,50.11399841308594 11.329000473022461,56.8120002746582 -1.687999963760376,52.34199905395508 C-23.249000549316406,44.9379997253418 -31.31100082397461,23.607999801635742 -48.66299819946289,29.481000900268555 C-72.11000061035156,37.41600036621094 -165.55099487304688,28.797000885009766 -155.68800354003906,9.342000007629395 C-151.29200744628906,0.671999990940094 -107.36100006103516,-29.871999740600586 -99.68800354003906,-44.65800094604492 C-92.01399993896484,-59.444000244140625 -35.84400177001953,-41.178001403808594 -26.68000030517578,-40.40299987792969z"></path></g></g><g style="display: block;" transform="matrix(1,0,0,1,284.59197998046875,335.0480041503906)" opacity="1"><g opacity="1" transform="matrix(1,0,0,1,43.04100036621094,32.5890007019043)"><path fill="rgb(252,245,239)" fill-opacity="1" d=" M-40.42900085449219,6.309000015258789 C-38.529998779296875,8.175999641418457 -17.82699966430664,32.3390007019043 -2.118000030517578,29.034000396728516 C13.59000015258789,25.72800064086914 20.402000427246094,24.243999481201172 25.639999389648438,17.349000930786133 C30.878000259399414,10.454000473022461 31.43600082397461,4.184999942779541 35.14400100708008,0.04699999839067459 C38.85200119018555,-4.091000080108643 42.79100036621094,-5.046000003814697 38.94599914550781,-8.031000137329102 C35.10200119018555,-11.015999794006348 4.802000045776367,-19.840999603271484 -0.9430000185966492,-21.68199920654297 C-6.688000202178955,-23.52400016784668 -16.69300079345703,-32.3390007019043 -21.698999404907227,-28.055999755859375 C-26.70400047302246,-23.77400016784668 -31.989999771118164,-13.458999633789062 -34.400001525878906,-9.465999603271484 C-36.81100082397461,-5.4730000495910645 -42.79100036621094,3.986999988555908 -40.42900085449219,6.309000015258789z"></path></g></g><g style="display: block;" transform="matrix(1,0,0,1,498.5920104980469,334.0479736328125)" opacity="1"><g opacity="1" transform="matrix(1,0,0,1,43.04100036621094,32.5890007019043)"><path fill="rgb(252,245,239)" fill-opacity="1" d=" M-40.42900085449219,6.309000015258789 C-38.53099822998047,8.175999641418457 -17.82699966430664,32.3390007019043 -2.118000030517578,29.034000396728516 C13.59000015258789,25.72800064086914 20.402000427246094,24.243999481201172 25.638999938964844,17.349000930786133 C30.878000259399414,10.454000473022461 31.43600082397461,4.184999942779541 35.14400100708008,0.04699999839067459 C38.85200119018555,-4.091000080108643 42.79100036621094,-5.046000003814697 38.94599914550781,-8.031000137329102 C35.10100173950195,-11.015999794006348 4.802000045776367,-19.840999603271484 -0.9430000185966492,-21.68199920654297 C-6.688000202178955,-23.52400016784668 -16.69300079345703,-32.3390007019043 -21.698999404907227,-28.055999755859375 C-26.70400047302246,-23.77400016784668 -31.989999771118164,-13.458999633789062 -34.4010009765625,-9.465999603271484 C-36.81100082397461,-5.4730000495910645 -42.79100036621094,3.986999988555908 -40.42900085449219,6.309000015258789z"></path></g></g><g style="display: block;" transform="matrix(1,0,0,1,397.7059631347656,323.8710021972656)" opacity="1"><g opacity="1" transform="matrix(1,0,0,1,28.945999145507812,22.80500030517578)"><path fill="rgb(252,245,239)" fill-opacity="1" d=" M-27.69300079345703,-18.309999465942383 C-27.667999267578125,-12.520000457763672 -28.69700050354004,9.486000061035156 -23.051000595092773,15.251999855041504 C-17.405000686645508,21.017000198364258 -10.670999526977539,18.672000885009766 3.9489998817443848,19.766000747680664 C18.56800079345703,20.860000610351562 25.792999267578125,22.55500030517578 26.43199920654297,19.667999267578125 C28.69700050354004,9.444999694824219 26.10300064086914,4.492000102996826 24.496000289916992,-6.3379998207092285 C23.5939998626709,-12.42300033569336 24.448999404907227,-17.576000213623047 11.647000312805176,-19.639999389648438 C-6.434000015258789,-22.55500030517578 -27.69300079345703,-18.309999465942383 -27.69300079345703,-18.309999465942383z"></path></g></g><g style="display: block;" transform="matrix(1,0,0,1,469.70599365234375,284.8709716796875)" opacity="1"><g opacity="1" transform="matrix(1,0,0,1,28.945999145507812,22.80500030517578)"><path fill="rgb(252,245,239)" fill-opacity="1" d=" M-27.69300079345703,-18.309999465942383 C-27.667999267578125,-12.520000457763672 -28.69700050354004,9.486000061035156 -23.051000595092773,15.251999855041504 C-17.405000686645508,21.017000198364258 -10.670999526977539,18.672000885009766 3.9489998817443848,19.766000747680664 C18.56800079345703,20.860000610351562 25.79199981689453,22.55500030517578 26.430999755859375,19.667999267578125 C28.695999145507812,9.444999694824219 26.10300064086914,4.492000102996826 24.496000289916992,-6.3379998207092285 C23.5939998626709,-12.42300033569336 24.448999404907227,-17.576000213623047 11.647000312805176,-19.639999389648438 C-6.434000015258789,-22.55500030517578 -27.69300079345703,-18.309999465942383 -27.69300079345703,-18.309999465942383z"></path></g></g><g style="display: block;" transform="matrix(1,0,0,1,207.9980010986328,398.7060241699219)" opacity="1"><g opacity="1" transform="matrix(1,0,0,1,36.17399978637695,24)"><path fill="rgb(252,245,239)" fill-opacity="1" d=" M-32.97200012207031,-20.531999588012695 C-35.92399978637695,-9.133999824523926 -22.062999725341797,2.36299991607666 -19.42799949645996,5.880000114440918 C-16.79199981689453,9.39799976348877 -9.208999633789062,20.659000396728516 -6.916999816894531,20.64900016784668 C-4.624000072479248,20.638999938964844 10.456999778747559,23.75 15.36299991607666,22.316999435424805 C20.270000457763672,20.882999420166016 24.520999908447266,19.100000381469727 28.429000854492188,14.142000198364258 C32.3380012512207,9.184000015258789 35.92399978637695,5.284999847412109 35.25699996948242,2.4649999141693115 C34.59000015258789,-0.35600000619888306 16.856000900268555,-10.866999626159668 7.99399995803833,-15.062999725341797 C-0.8679999709129333,-19.26099967956543 -14.312999725341797,-23.083999633789062 -18.900999069213867,-23.41699981689453 C-23.488000869750977,-23.75 -32.49800109863281,-22.36199951171875 -32.97200012207031,-20.531999588012695z"></path></g></g><g style="display: block;" transform="matrix(1,0,0,1,317.9980163574219,428.7060241699219)" opacity="1"><g opacity="1" transform="matrix(1,0,0,1,36.17399978637695,24)"><path fill="rgb(252,245,239)" fill-opacity="1" d=" M-32.97200012207031,-20.531999588012695 C-35.92399978637695,-9.133999824523926 -22.062999725341797,2.36299991607666 -19.42799949645996,5.880000114440918 C-16.79199981689453,9.39799976348877 -9.208999633789062,20.659000396728516 -6.916999816894531,20.64900016784668 C-4.624000072479248,20.638999938964844 10.456999778747559,23.75 15.36299991607666,22.316999435424805 C20.270000457763672,20.882999420166016 24.520999908447266,19.100000381469727 28.429000854492188,14.142000198364258 C32.3390007019043,9.184000015258789 35.92399978637695,5.284999847412109 35.25699996948242,2.4649999141693115 C34.59000015258789,-0.35600000619888306 16.856000900268555,-10.866999626159668 7.99399995803833,-15.062999725341797 C-0.8679999709129333,-19.26099967956543 -14.312999725341797,-23.083999633789062 -18.900999069213867,-23.41699981689453 C-23.488000869750977,-23.75 -32.49800109863281,-22.36199951171875 -32.97200012207031,-20.531999588012695z"></path></g></g></g></svg>