
<svg xmlns="http://www.w3.org/2000/svg" viewBox="0 0 760 760" width="760" height="760" style="width: 100%; height: 100%; transform: translate3d(0px, 0px, 0px);" preserveAspectRatio="xMidYMid meet"><defs><clipPath id="__lottie_element_2517"><rect width="760" height="760" x="0" y="0"></rect></clipPath></defs><g clip-path="url(#__lottie_element_2517)"><g style="display: block;" transform="matrix(0.000004284187070879852,0,0,0.000004284187070879852,343.9994812011719,348)" opacity="1"><g opacity="1" transform="matrix(1,0,0,1,189.69100952148438,-1.996002197265625)"><path fill="rgb(209,240,246)" fill-opacity="1" d=" M53,-180 C-27.69300079345703,-179.1219940185547 -76.69100189208984,-183.00399780273438 -155,-138 C-233.99899291992188,-98.69100189208984 -342.6910095214844,-8.003999710083008 -276,147 C-252.18099975585938,202.35899353027344 -198.6909942626953,332.9960021972656 -72,299.0010070800781 C-37.99300003051758,289.8760070800781 34.308998107910156,280.9960021972656 188,131 C244.33099365234375,76.02400207519531 261.3080139160156,-16.003999710083008 228,-74 C204.5189971923828,-114.88500213623047 145.3090057373047,-181.00399780273438 53,-180z"></path></g></g><g style="display: block;" transform="matrix(0.9999998211860657,0,0,0.9999998211860657,195.88504028320312,323.5870056152344)" opacity="1"><g opacity="1" transform="matrix(1,0,0,1,233.427001953125,104.82599639892578)"><path fill="rgb(168,214,223)" fill-opacity="1" d=" M-429.31298828125,-428.4129943847656 C-429.31298828125,-428.4129943847656 330.68701171875,-428.4129943847656 330.68701171875,-428.4129943847656 C330.68701171875,-428.4129943847656 330.68701171875,331.5870056152344 330.68701171875,331.5870056152344 C330.68701171875,331.5870056152344 -429.31298828125,331.5870056152344 -429.31298828125,331.5870056152344 C-429.31298828125,331.5870056152344 -429.31298828125,-428.4129943847656 -429.31298828125,-428.4129943847656z M-429.31298828125,331.5870056152344 C-429.31298828125,331.5870056152344 330.68701171875,331.5870056152344 330.68701171875,331.5870056152344 C330.68701171875,331.5870056152344 330.68701171875,-428.4129943847656 330.68701171875,-428.4129943847656 C330.68701171875,-428.4129943847656 -429.31298828125,-428.4129943847656 -429.31298828125,-428.4129943847656 C-429.31298828125,-428.4129943847656 -429.31298828125,331.5870056152344 -429.31298828125,331.5870056152344z M217.46200561523438,-16.392000198364258 C213.5449981689453,-20.849000930786133 209.42999267578125,-24.23900032043457 204.28399658203125,-26.757999420166016 C202.63699340820312,-28.176000595092773 200.9600067138672,-29.584999084472656 200.02499389648438,-30.236000061035156 C197.74899291992188,-31.82200050354004 167.64199829101562,-48.70800018310547 151.0919952392578,-59.89500045776367 C134.54100036621094,-71.08100128173828 104.0989990234375,-85.47799682617188 88.96199798583984,-93.29900360107422 C88.96199798583984,-93.29900360107422 68.5979995727539,-99.31700134277344 45.28300094604492,-101.9469985961914 C21.969999313354492,-104.57599639892578 -11.562000274658203,-91.5270004272461 -19.12700080871582,-86.25 C-26.691999435424805,-80.97200012207031 -36.81700134277344,-79.7249984741211 -56.89500045776367,-75.05999755859375 C-83.86399841308594,-68.79499816894531 -102.76399993896484,-57.582000732421875 -115.66300201416016,-54.31800079345703 C-128.56199645996094,-51.05500030517578 -140.1840057373047,-41.29600143432617 -158.94400024414062,-40.75299835205078 C-177.7030029296875,-40.21099853515625 -187.99200439453125,-35.1150016784668 -196.5050048828125,-27.434999465942383 C-205.01800537109375,-19.756000518798828 -216.2740020751953,-19.430999755859375 -224.72500610351562,-16.812000274658203 C-233.177001953125,-14.192999839782715 -230.35000610351562,-7.4629998207092285 -220.69200134277344,4.0269999504089355 C-211.03399658203125,15.515999794006348 -205.9530029296875,19.395000457763672 -197.4340057373047,30.090999603271484 C-188.95199584960938,40.742000579833984 -156.1060028076172,99.35399627685547 -148.6020050048828,96.49500274658203 C-147.7220001220703,100.06600189208984 -143.68299865722656,103.93800354003906 -133.96099853515625,104.23500061035156 C-122.79100036621094,104.57499694824219 -106.77200317382812,96.63500213623047 -85.86499786376953,89.4229965209961 C-64.95700073242188,82.21199798583984 -24.106000900268555,84.12699890136719 18.259000778198242,74.8489990234375 C60.62300109863281,65.57099914550781 96.03399658203125,61.65700149536133 129.50399780273438,53.667999267578125 C162.97500610351562,45.67900085449219 204.82899475097656,42.0369987487793 210.5260009765625,30.14299964904785 C213.92599487304688,23.047000885009766 233.17799377441406,1.4869999885559082 217.46200561523438,-16.392000198364258z"></path><g opacity="1" transform="matrix(1,0,0,1,0,0)"></g></g></g><g style="display: block;" transform="matrix(1,0,0,1,143.93702697753906,249.35891723632812)" opacity="1"><g opacity="1" transform="matrix(1,0,0,1,223.68899536132812,102.49400329589844)"><path fill="rgb(255,174,159)" fill-opacity="1" d=" M101.36900329589844,-90.96800231933594 C116.76699829101562,-83.14700317382812 147.73300170898438,-68.75 164.56900024414062,-57.5629997253418 C181.4040069580078,-46.37699890136719 212.0290069580078,-29.489999771118164 214.3459930419922,-27.90399932861328 C216.66099548339844,-26.319000244140625 223.43899536132812,-20.31800079345703 223.43899536132812,-20.31800079345703 C223.43899536132812,-20.31800079345703 214.70899963378906,-25.954999923706055 192.17599487304688,-23.351999282836914 C169.64100646972656,-20.75 153.83299255371094,-13.27400016784668 117.14399719238281,-6.400000095367432 C92.15899658203125,-1.718000054359436 57.172000885009766,13.831999778747559 42.74399948120117,21.985000610351562 C28.316999435424805,30.136999130249023 -16.424999237060547,46.79199981689453 -34.15599822998047,51.321998596191406 C-51.88600158691406,55.85200119018555 -71.60800170898438,70.24700164794922 -95.79000091552734,80.2249984741211 C-119.97200012207031,90.2040023803711 -132.7270050048828,95.41899871826172 -140.16600036621094,98.83100128173828 C-147.60499572753906,102.24299621582031 -181.28900146484375,43.119998931884766 -189.9550018310547,32.42399978637695 C-198.62100219726562,21.726999282836914 -203.7899932861328,17.847999572753906 -213.61399841308594,6.359000205993652 C-223.43800354003906,-5.130000114440918 -218.1999969482422,-13.392000198364258 -209.60299682617188,-16.01099967956543 C-201.00599670410156,-18.6299991607666 -197.6699981689453,-17.426000595092773 -189.00999450683594,-25.104999542236328 C-180.3509979248047,-32.784000396728516 -169.88499450683594,-37.87799835205078 -150.80299377441406,-38.42100143432617 C-131.72000122070312,-38.9640007019043 -118.08899688720703,-43.22600173950195 -104.96700286865234,-46.48899841308594 C-91.84600067138672,-49.75299835205078 -75.51499938964844,-68.62100219726562 -48.08300018310547,-74.88600158691406 C-27.658000946044922,-79.5510025024414 -16.275999069213867,-78.63999938964844 -8.579999923706055,-83.91699981689453 C-0.8840000033378601,-89.19499969482422 33.2239990234375,-102.24299621582031 56.93899917602539,-99.61399841308594 C80.65499877929688,-96.98500061035156 101.36900329589844,-90.96800231933594 101.36900329589844,-90.96800231933594z"></path></g><g opacity="1" transform="matrix(1,0,0,1,277.34600830078125,140.5749969482422)"><path fill="rgb(255,149,129)" fill-opacity="1" d=" M-189.9510040283203,54.7869987487793 C-159.0449981689453,47.808998107910156 -146.47500610351562,33.52299880981445 -117.96299743652344,19.704999923706055 C-89.45099639892578,5.88700008392334 -38.38100051879883,-6.0960001945495605 -13.942999839782715,-17.940000534057617 C10.496999740600586,-29.784000396728516 33.090999603271484,-44.46500015258789 61.691001892089844,-51.887001037597656 C84.03099822998047,-57.683998107910156 103.34700012207031,-67.85700225830078 123.67400360107422,-68.22899627685547 C156.33299255371094,-68.82599639892578 168.593994140625,-64.42500305175781 179.57699584960938,-52.143001556396484 C195.56399536132812,-34.263999938964844 195.30499267578125,-10.256999969482422 187.12899780273438,-3.00600004196167 C177.22900390625,5.771999835968018 124.1500015258789,9.928999900817871 90.10399627685547,17.91699981689453 C56.05799865722656,25.905000686645508 20.038000106811523,29.81999969482422 -23.05699920654297,39.097999572753906 C-66.1510009765625,48.375999450683594 -107.70500183105469,46.459999084472656 -128.9720001220703,53.672000885009766 C-150.24000549316406,60.88399887084961 -166.53399658203125,68.82499694824219 -177.89599609375,68.48400115966797 C-195.56399536132812,67.9540023803711 -195.1820068359375,55.96900177001953 -189.9510040283203,54.7869987487793z"></path></g><g opacity="1" transform="matrix(1,0,0,1,158.156005859375,179.04299926757812)"><path fill="rgb(255,203,193)" fill-opacity="1" d=" M-11.734999656677246,16.2450008392334 C-11.770000457763672,16.198999404907227 -13.119999885559082,15.237000465393066 -20.308000564575195,9.927000045776367 C-28.920000076293945,3.562000036239624 -28.400999069213867,-2.690999984741211 -26.760000228881836,-7.9720001220703125 C-26.201000213623047,-9.76200008392334 -24.917999267578125,-11.152999877929688 -23.07200050354004,-11.98900032043457 C-13.680999755859375,-16.2450008392334 12.071999549865723,-5.7779998779296875 22.698999404907227,-1.0859999656677246 C28.920000076293945,1.6510000228881836 28.736000061035156,9.230999946594238 28.72599983215332,9.598999977111816 C28.72599983215332,9.598999977111816 24.652000427246094,9.619999885559082 24.652000427246094,9.619999885559082 C24.660999298095703,9.553000450134277 24.66900062561035,4.309999942779541 21.0310001373291,2.7200000286102295 C5.511000156402588,-4.158999919891357 -14.904000282287598,-11.125 -21.356000900268555,-8.222999572753906 C-22.360000610351562,-7.76200008392334 -22.6560001373291,-7.189000129699707 -22.798999786376953,-6.744999885559082 C-24.02899932861328,-2.756999969482422 -24.673999786376953,1.5429999828338623 -17.83099937438965,6.5879998207092285 C-10.097000122070312,12.300000190734863 -8.1850004196167,14.508000373840332 -8.036999702453613,14.718999862670898 C-8.036999702453613,14.718999862670898 -11.734999656677246,16.2450008392334 -11.734999656677246,16.2450008392334z"></path></g><g opacity="1" transform="matrix(1,0,0,1,165.4010009765625,173.66700744628906)"><path fill="rgb(255,203,193)" fill-opacity="1" d=" M-51.066001892089844,32.90800094604492 C-60.59000015258789,27.236000061035156 -75.44000244140625,17.302000045776367 -75.5739974975586,12.335000038146973 C-75.59100341796875,11.96500015258789 -74.7760009765625,-25.270000457763672 -61.83399963378906,-28.28700065612793 C-53.4379997253418,-30.26799964904785 -37.358001708984375,-32.90800094604492 -24.246999740600586,-28.54199981689453 C-12.321000099182129,-24.56999969482422 0.546999990940094,-21.80500030517578 7.5929999351501465,-23.575000762939453 C8.5649995803833,-23.809999465942383 31.47599983215332,-30.731000900268555 40.262001037597656,-26.42799949645996 C44.40999984741211,-24.371000289916992 48.178001403808594,-18.67300033569336 51.821998596191406,-13.156000137329102 C54.244998931884766,-9.470000267028809 56.76300048828125,-5.675000190734863 58.8650016784668,-3.9130001068115234 C64.1969985961914,0.527999997138977 75.50499725341797,8.392999649047852 75.59100341796875,8.460000038146973 C75.59100341796875,8.460000038146973 68.71299743652344,9.84000015258789 68.71299743652344,9.84000015258789 C68.34100341796875,9.569999694824219 61.64699935913086,3.802999973297119 56.20600128173828,-0.7360000014305115 C53.625999450683594,-2.890000104904175 51.06399917602539,-6.758999824523926 48.358001708984375,-10.864999771118164 C45.178001403808594,-15.692999839782715 41.66400146484375,-22.714000701904297 38.51100158691406,-24.264999389648438 C33.12300109863281,-27.010000228881836 17.158000946044922,-22.95400047302246 8.47599983215332,-20.781999588012695 C0.6029999852180481,-18.839000701904297 -12.779000282287598,-20.35300064086914 -25.552000045776367,-24.604999542236328 C-37.696998596191406,-28.660999298095703 -53.90999984741211,-27.725000381469727 -61.88100051879883,-25.863000869750977 C-69.7699966430664,-24.003999710083008 -71.43599700927734,7.784999847412109 -71.24500274658203,14.722000122070312 C-70.60299682617188,17.086999893188477 -56.83599853515625,25.077999114990234 -45.939998626708984,31.57900047302246 C-45.939998626708984,31.57900047302246 -51.066001892089844,32.90800094604492 -51.066001892089844,32.90800094604492z"></path></g><g opacity="1" transform="matrix(1,0,0,1,188.9929962158203,153.28500366210938)"><path fill="rgb(255,203,193)" fill-opacity="1" d=" M-123.30799865722656,28.569000244140625 C-124.54100036621094,21.979999542236328 -127.26599884033203,-0.5220000147819519 -126.06199645996094,-9.270999908447266 C-125.8740005493164,-10.635000228881836 -125.75599670410156,-12.09000015258789 -125.63400268554688,-13.572999954223633 C-125.06800079345703,-20.856000900268555 -124.27999877929688,-30.847999572753906 -112.9530029296875,-31.538999557495117 C-111.2770004272461,-31.63599967956543 -109.27999877929688,-31.783000946044922 -107.05000305175781,-31.93899917602539 C-93.49299621582031,-32.895999908447266 -72.91400146484375,-34.452999114990234 -60.76900100708008,-31.979000091552734 C-50.45199966430664,-29.98699951171875 -41.25600051879883,-30.643999099731445 -31.483999252319336,-31.33099937438965 C-28.263999938964844,-31.555999755859375 -25.045000076293945,-31.766000747680664 -21.797000885009766,-31.892000198364258 C-13.083000183105469,-32.220001220703125 57.59000015258789,-28.909000396728516 61.69200134277344,-26.81800079345703 C64.25399780273438,-25.43000030517578 63.67399978637695,-24.31800079345703 65.19599914550781,-20.809999465942383 C67.84700012207031,-14.720999717712402 71.47100067138672,-6.385000228881836 83.45600128173828,-1.4520000219345093 C105.48699951171875,7.631999969482422 122.77100372314453,13.772000312805176 127.26599884033203,15.180999755859375 C127.26599884033203,15.180999755859375 117.93499755859375,16.68600082397461 117.93499755859375,16.68600082397461 C113.3740005493164,15.267999649047852 104.03900146484375,11.522000312805176 81.86399841308594,2.3919999599456787 C68.33100128173828,-3.177000045776367 64.16000366210938,-12.788000106811523 61.395999908447266,-19.152000427246094 C60.17399978637695,-21.96500015258789 59.119998931884766,-24.400999069213867 57.81100082397461,-25.097999572753906 C53.88800048828125,-26.402000427246094 -7.7230000495910645,-28.2810001373291 -21.631000518798828,-27.753999710083008 C-24.85099983215332,-27.624000549316406 -28.016000747680664,-27.4060001373291 -31.19499969482422,-27.18899917602539 C-40.81700134277344,-26.509000778198242 -50.76100158691406,-25.857999801635742 -61.54600143432617,-27.913999557495117 C-73.31199645996094,-30.173999786376953 -94.2249984741211,-28.66200065612793 -106.76200103759766,-27.797000885009766 C-109.00399780273438,-27.642000198364258 -111.01499938964844,-27.496000289916992 -112.70600128173828,-27.38800048828125 C-119.90699768066406,-26.961000442504883 -120.84100341796875,-21.760000228881836 -121.50900268554688,-13.237000465393066 C-121.62899780273438,-11.67199993133545 -121.74500274658203,-10.133999824523926 -121.94200134277344,-8.70300006866455 C-123.00900268554688,-0.9449999928474426 -119.98300170898438,27.023000717163086 -118.59200286865234,34.452999114990234 C-118.59200286865234,34.452999114990234 -123.30799865722656,28.569000244140625 -123.30799865722656,28.569000244140625z"></path></g><g opacity="1" transform="matrix(1,0,0,1,247.6929931640625,117.12100219726562)"><path fill="rgb(255,203,193)" fill-opacity="1" d=" M-214.8459930419922,15.503000259399414 C-214.70399475097656,14.17300033569336 -209.74600219726562,-15.789999961853027 -191.3560028076172,-17.391000747680664 C-174.4149932861328,-18.863000869750977 -100.7760009765625,-24.389999389648438 -83.69400024414062,-22.038999557495117 C-83.25199890136719,-21.97800064086914 -82.85199737548828,-21.90999984741211 -82.49500274658203,-21.83300018310547 C-77.90499877929688,-20.916000366210938 -64.52799987792969,-20.05699920654297 -48.994998931884766,-19.02400016784668 C-7.426000118255615,-16.222000122070312 30.082000732421875,-12.371000289916992 38.715999603271484,-7.256999969482422 C43.316001892089844,-4.525000095367432 45.369998931884766,-1.3940000534057617 50.14899826049805,3.1070001125335693 C59.53099822998047,11.989999771118164 69.23600006103516,21.216999053955078 81.17400360107422,20.43400001525879 C99.56500244140625,19.323999404907227 120.66500091552734,6.729000091552734 120.88899993896484,6.5960001945495605 C120.88899993896484,6.5960001945495605 121.70600128173828,6.109000205993652 121.70600128173828,6.109000205993652 C121.70600128173828,6.109000205993652 122.61799621582031,6.4120001792907715 122.61799621582031,6.4120001792907715 C122.85199737548828,6.498000144958496 145.00399780273438,14.770999908447266 164.6510009765625,9.486000061035156 C185.1060028076172,3.9719998836517334 203.25799560546875,-12.017999649047852 211.60699462890625,-25.34600067138672 C211.60699462890625,-25.34600067138672 214.8459930419922,-21.410999298095703 214.8459930419922,-21.410999298095703 C205.93800354003906,-7.192999839782715 186.92799377441406,6.698999881744385 165.468994140625,12.484000205993652 C146.69400024414062,17.575000762939453 126.73799896240234,12.03499984741211 122.20099639892578,10.633999824523926 C117.99700164794922,13.055000305175781 98.94599914550781,23.520000457763672 81.41999816894531,24.583999633789062 C67.73899841308594,25.34600067138672 56.86000061035156,15.166999816894531 47.29499816894531,6.122000217437744 C42.698001861572266,1.781999945640564 38.94200134277344,-3.2829999923706055 34.731998443603516,-5.769999980926514 C26.291000366210938,-10.802000045776367 -19.41699981689453,-12.883000373840332 -49.26599884033203,-14.876999855041504 C-65.59500122070312,-15.977999687194824 -78.49099731445312,-16.743999481201172 -83.27100372314453,-17.768999099731445 C-96.80999755859375,-20.218000411987305 -175.72900390625,-16.08099937438965 -192.4239959716797,-14.616000175476074 C-207.44700622558594,-13.315999984741211 -210.447998046875,15.236000061035156 -211.28900146484375,19.704999923706055 C-211.28900146484375,19.704999923706055 -214.8459930419922,15.503000259399414 -214.8459930419922,15.503000259399414z"></path></g><g opacity="1" transform="matrix(1,0,0,1,228.47300720214844,88.51699829101562)"><path fill="rgb(255,203,193)" fill-opacity="1" d=" M-216.39999389648438,21.825000762939453 C-216.39999389648438,21.825000762939453 -218.78599548339844,18.461999893188477 -218.78599548339844,18.461999893188477 C-218.16000366210938,17.280000686645508 -204.05499267578125,-8.336000442504883 -189.23599243164062,-10.331999778747559 C-186.18099975585938,-10.743000030517578 -182.25599670410156,-12.447999954223633 -176.64999389648438,-13.366999626159668 C-155.91900634765625,-16.729999542236328 -124.59100341796875,-21.825000762939453 -109.71399688720703,-20.378999710083008 C-103.1500015258789,-19.74799919128418 -92.33999633789062,-19.35099983215332 -79.8219985961914,-18.89699935913086 C-56.83399963378906,-18.051000595092773 -28.23200035095215,-16.89699935913086 -8.88599967956543,-13.854000091552734 C6.193999767303467,-11.112000465393066 39.33100128173828,-10.723999977111816 68.46299743652344,-10.151000022888184 C109.98200225830078,-9.359999656677246 117.51399993896484,-6.25600004196167 119.20800018310547,-4.306000232696533 C119.20800018310547,-4.306000232696533 119.37200164794922,-2.4800000190734863 119.37200164794922,-2.4800000190734863 C119.37200164794922,-2.4800000190734863 119.41100311279297,-2.765000104904175 119.41100311279297,-2.765000104904175 C118.2770004272461,5.474999904632568 120.40899658203125,12.206999778747559 123.95899963378906,15.326000213623047 C125.99299621582031,17.091999053955078 128.64500427246094,17.538000106811523 131.85699462890625,16.684999465942383 C142.1269989013672,13.859000205993652 154.8719940185547,-3.756999969482422 155.0030059814453,-3.9159998893737793 C155.0030059814453,-3.9159998893737793 156.88299560546875,-4.589000225067139 156.88299560546875,-4.589000225067139 C156.88299560546875,-4.589000225067139 158.322998046875,-3.759000062942505 158.322998046875,-3.759000062942505 C158.45899963378906,-3.562999963760376 171.427001953125,16.968000411987305 184.83399963378906,12.052000045776367 C199.17999267578125,6.855000019073486 208.9530029296875,2.802000045776367 216.6219940185547,-9.746000289916992 C216.6219940185547,-9.746000289916992 218.78599548339844,-8.576000213623047 218.78599548339844,-8.576000213623047 C210.40199279785156,5.113999843597412 201.41799926757812,9.352999687194824 186.61199951171875,14.730999946594238 C172.99600219726562,19.67300033569336 160.77200317382812,6.173999786376953 156.4770050048828,0.7310000061988831 C152.41600036621094,5.2829999923706055 141.96200561523438,16.180999755859375 132.68499755859375,18.72100067138672 C126.9469985961914,20.304000854492188 123.13600158691406,18.375 120.97100067138672,16.48200035095215 C116.55599975585938,12.604000091552734 114.51399993896484,7.533999919891357 115.46600341796875,-1.562999963760376 C110.12100219726562,-2.6389999389648438 88.04100036621094,-5.63100004196167 68.38300323486328,-6.005000114440918 C39.10300064086914,-6.585000038146973 6.915999889373779,-8.704000473022461 -8.557000160217285,-11.0649995803833 C-27.613000869750977,-14.232000350952148 -57.09299850463867,-13.888999938964844 -79.98400115966797,-14.748000144958496 C-92.55599975585938,-15.210000038146973 -103.41899871826172,-15.61400032043457 -110.11699676513672,-16.26300048828125 C-124.45700073242188,-17.649999618530273 -155.65699768066406,-13.817999839782715 -174.93899536132812,-10.690999984741211 C-180.5850067138672,-9.777999877929688 -186.3209991455078,-7.581999778747559 -189.4029998779297,-7.175000190734863 C-199.9290008544922,-5.760000228881836 -212.46499633789062,14.229000091552734 -216.39999389648438,21.825000762939453z"></path></g><g opacity="1" transform="matrix(1,0,0,1,268.1759948730469,46.374000549316406)"><path fill="rgb(255,203,193)" fill-opacity="1" d=" M-120.84500122070312,-5.659999847412109 C-120.84500122070312,-5.659999847412109 -117.31300354003906,-8.081999778747559 -117.31300354003906,-8.081999778747559 C-116.20899963378906,-7.985000133514404 -12.263999938964844,3.2939999103546143 22.1200008392334,3.5399999618530273 C56.694000244140625,3.7839999198913574 76.20899963378906,3.953000068664551 76.3550033569336,3.9730000495910645 C79.16200256347656,3.486999988555908 82.86799621582031,3.2049999237060547 86.79499816894531,2.9010000228881836 C98.40599822998047,2.0169999599456787 109.69300079345703,3.234999895095825 117.0479965209961,-3.755000114440918 C117.0479965209961,-3.755000114440918 120.84500122070312,-1.7790000438690186 120.84500122070312,-1.7790000438690186 C112.41200256347656,6.21999979019165 99.41100311279297,6.109000205993652 87.11199951171875,7.033999919891357 C83.26699829101562,7.336999893188477 79.63099670410156,7.61299991607666 76.45899963378906,8.07699966430664 C75.80400085449219,8.081999778747559 61.07600021362305,6.642000198364258 26.746000289916992,6.4039998054504395 C-7.828999996185303,6.158999919891357 -119.74199676513672,-5.548999786376953 -120.84500122070312,-5.659999847412109z"></path></g><g opacity="1" transform="matrix(1,0,0,1,293.94500732421875,18.53499984741211)"><path fill="rgb(255,203,193)" fill-opacity="1" d=" M-6.21999979019165,6.303999900817871 C-34.20600128173828,2.4539999961853027 -60.9640007019043,-7.251999855041504 -61.28900146484375,-7.363999843597412 C-61.28900146484375,-7.363999843597412 -57.14699935913086,-8.84000015258789 -57.14699935913086,-8.84000015258789 C-54.24300003051758,-7.848999977111816 -21.604999542236328,2.6070001125335693 10.706999778747559,3.6440000534057617 C43.16999816894531,4.675000190734863 54.14099884033203,5.607999801635742 56.95800018310547,5.113999843597412 C56.95800018310547,5.113999843597412 61.28900146484375,7.453999996185303 61.28900146484375,7.453999996185303 C61.1349983215332,7.473999977111816 43.319000244140625,8.84000015258789 10.571999549865723,7.796999931335449 C5.063000202178955,7.611000061035156 -0.6019999980926514,7.077000141143799 -6.21999979019165,6.303999900817871z"></path></g></g><g style="display: block;" transform="matrix(1,-0.0000026759046249935636,0.0000026759046249935636,1,214.17576599121094,349.2032470703125)" opacity="1"><g opacity="1" transform="matrix(1,0,0,1,81.6709976196289,82.66100311279297)"><path fill="rgb(133,198,138)" fill-opacity="1" d=" M51.875999450683594,-69.4260025024414 C48.97999954223633,-72.75599670410156 44.25600051879883,-75.62699890136719 40.19900131225586,-75.82099914550781 C35.8650016784668,-76.02899932861328 33.51599884033203,-73.34500122070312 31.575000762939453,-70.82499694824219 C27.902999877929688,-66.052001953125 24.231000900268555,-61.28099822998047 20.55699920654297,-56.50699996948242 C17.738000869750977,-52.84400177001953 11.699999809265137,-42.73500061035156 3.7669999599456787,-44.56100082397461 C-6.484000205993652,-46.91999816894531 -6.5980000495910645,-51.78499984741211 -10.463000297546387,-58.42100143432617 C-13.762999534606934,-64.08599853515625 -17.482999801635742,-72.375 -23.792999267578125,-76.61299896240234 C-30.10300064086914,-80.8489990234375 -39.03900146484375,-82.41100311279297 -41.78099822998047,-78.4749984741211 C-43.220001220703125,-76.41400146484375 -42.72600173950195,-73.36000061035156 -41.891998291015625,-70.4209976196289 C-37.071998596191406,-53.439998626708984 -25.097000122070312,-36.32500076293945 -21.8799991607666,-20.702999114990234 C-20.22100067138672,-12.647000312805176 -15.223999977111816,-4.99399995803833 -20.041000366210938,-0.33799999952316284 C-22.14299964904785,0.9110000133514404 -24.452999114990234,1.6130000352859497 -26.981000900268555,1.031000018119812 C-37.233001708984375,-1.3279999494552612 -44.400001525878906,-16.21299934387207 -48.26499938964844,-22.847999572753906 C-51.566001892089844,-28.513999938964844 -55.685001373291016,-34.474998474121094 -61.994998931884766,-38.71099853515625 C-68.30500030517578,-42.948001861572266 -77.24099731445312,-44.5099983215332 -79.98400115966797,-40.57500076293945 C-81.4209976196289,-38.512001037597656 -80.9280014038086,-35.459999084472656 -80.09400177001953,-32.520999908447266 C-75.2750015258789,-15.539999961853027 -53.08599853515625,9.083999633789062 -52.62900161743164,24.88800048828125 C-52.36000061035156,34.18600082397461 -52.28300094604492,40.762001037597656 -52.65599822998047,45.77399826049805 C-54.236000061035156,66.9520034790039 -48.933998107910156,75.27200317382812 -41.52299880981445,79.04199981689453 C-34.89799880981445,82.41100311279297 -29.43899917602539,77.18099975585938 -24.562000274658203,74.89900207519531 C-22.01099967956543,73.70500183105469 -16.302000045776367,66.68299865722656 -14.70199966430664,63.869998931884766 C-13.930999755859375,61.28499984741211 -12.267999649047852,60.112998962402344 -12.267999649047852,60.112998962402344 C-5.605000019073486,52.345001220703125 12.628999710083008,53.36199951171875 25.113000869750977,52.930999755859375 C32.6349983215332,52.672000885009766 40.779998779296875,52.78099822998047 45.72600173950195,49.3380012512207 C50.672000885009766,45.89500045776367 50.382999420166016,37.28099822998047 42.90599822998047,32.15399932861328 C37.94300079345703,28.750999450683594 31.966999053955078,28.216999053955078 27.110000610351562,28.632999420166016 C22.253999710083008,29.049999237060547 17.649999618530273,30.165000915527344 12.21399974822998,29.141000747680664 C9.562000274658203,28.02899932861328 8.73900032043457,24.285999298095703 10.505000114440918,21.0939998626709 C12.819000244140625,17.802000045776367 18.479999542236328,14.519000053405762 18.479999542236328,14.519000053405762 C25.143999099731445,6.754000186920166 43.37799835205078,7.770999908447266 55.86199951171875,7.340000152587891 C63.38399887084961,7.079999923706055 71.52799987792969,7.188000202178955 76.4749984741211,3.746000051498413 C81.4209976196289,0.30300000309944153 81.13200378417969,-8.3100004196167 73.65399932861328,-13.439000129699707 C68.69200134277344,-16.840999603271484 62.715999603271484,-17.375 57.85900115966797,-16.958999633789062 C53.00299835205078,-16.54199981689453 48.39799880981445,-15.428000450134277 42.96200180053711,-16.451000213623047 C39.777000427246094,-22.256999969482422 41.194000244140625,-27.635000228881836 44.09000015258789,-31.597999572753906 C46.986000061035156,-35.56100082397461 51.24599838256836,-38.590999603271484 53.93899917602539,-42.683998107910156 C56.8849983215332,-47.15800094604492 57.861000061035156,-52.85900115966797 56.736000061035156,-59.00899887084961 C56.112998962402344,-62.41699981689453 54.77299880981445,-66.09500122070312 51.875999450683594,-69.4260025024414z"></path></g></g><g style="display: block;" transform="matrix(1,0,0,1,132.18600463867188,406.43499755859375)" opacity="1"><g opacity="1" transform="matrix(1,0,0,1,99.66600036621094,81.90899658203125)"><path fill="rgb(246,225,1)" fill-opacity="1" d=" M99.41699981689453,0.9710000157356262 C99.41699981689453,0.9710000157356262 45.500999450683594,81.65899658203125 -26.058000564575195,47.35200119018555 C-99.41699981689453,12.182000160217285 -89.8550033569336,-37.25899887084961 -71.01899719238281,-81.65899658203125 C-31.868999481201172,-74.52400207519531 99.41699981689453,0.9710000157356262 99.41699981689453,0.9710000157356262z"></path></g><g opacity="1" transform="matrix(1,0,0,1,106.43499755859375,64.0989990234375)"><path fill="rgb(252,247,154)" fill-opacity="1" d=" M-64.45099639892578,-56.33399963378906 C-67.33699798583984,-50.0099983215332 -69.05699920654297,-45.99599838256836 -70.53500366210938,-41.45399856567383 C-82.2239990234375,-5.565000057220459 -68.8489990234375,28.65399932861328 -38.26900100708008,47.43299865722656 C-25.312000274658203,55.38999938964844 -9.798999786376953,59.65599822998047 7.074999809265137,59.262001037597656 C32.49300003051758,58.667999267578125 50.358001708984375,45.47999954223633 66.41200256347656,30.645000457763672 C72.21800231933594,25.27899932861328 78.5,19.059999465942383 82.2239990234375,12.581999778747559 C56.68199920654297,-1.6059999465942383 31.79199981689453,-15.309000015258789 8.706000328063965,-27.132999420166016 C-19.198999404907227,-41.42499923706055 -44.33300018310547,-52.99700164794922 -63.04600143432617,-59.65599822998047 C-63.04600143432617,-59.65599822998047 -64.45099639892578,-56.33399963378906 -64.45099639892578,-56.33399963378906z"></path></g><g opacity="1" transform="matrix(1,0,0,1,108.21299743652344,79.73400115966797)"><path fill="rgb(255,255,255)" fill-opacity="1" d=" M4.7870001792907715,-43.770999908447266 C4.7870001792907715,-43.770999908447266 7.743000030517578,-42.38600158691406 7.743000030517578,-42.38600158691406 C7.743000030517578,-42.38600158691406 -1.6649999618530273,43.770999908447266 -1.6649999618530273,43.770999908447266 C-1.6649999618530273,43.770999908447266 -7.743000030517578,43.284000396728516 -7.743000030517578,43.284000396728516 C-7.743000030517578,43.284000396728516 4.7870001792907715,-43.770999908447266 4.7870001792907715,-43.770999908447266z"></path></g><g opacity="1" transform="matrix(1,0,0,1,81.32499694824219,67.63099670410156)"><path fill="rgb(255,255,255)" fill-opacity="1" d=" M-29.226999282836914,30.57699966430664 C-29.226999282836914,30.57699966430664 28.591999053955078,-27.349000930786133 31.83799934387207,-29.56399917602539 C33.191001892089844,-30.57699966430664 30.968000411987305,-30.510000228881836 30.121000289916992,-30.30500030517578 C22.451000213623047,-25.7549991607666 -33.191001892089844,26.677000045776367 -33.191001892089844,26.677000045776367 C-33.191001892089844,26.677000045776367 -29.226999282836914,30.57699966430664 -29.226999282836914,30.57699966430664z"></path></g><g opacity="1" transform="matrix(1,0,0,1,72.2699966430664,41.6150016784668)"><path fill="rgb(255,255,255)" fill-opacity="1" d=" M-41.28099822998047,5.650000095367432 C-41.28099822998047,5.650000095367432 41.28099822998047,-4.431000232696533 41.28099822998047,-4.431000232696533 C41.28099822998047,-4.431000232696533 40.71900177001953,-5.650000095367432 40.71900177001953,-5.650000095367432 C40.71900177001953,-5.650000095367432 -39.75699996948242,-0.5170000195503235 -39.75699996948242,-0.5170000195503235 C-39.75699996948242,-0.5170000195503235 -41.28099822998047,5.650000095367432 -41.28099822998047,5.650000095367432z"></path></g><g opacity="1" transform="matrix(1,0,0,1,139.91200256347656,71.90499877929688)"><path fill="rgb(255,255,255)" fill-opacity="1" d=" M18.90999984741211,34.867000579833984 C18.90999984741211,34.867000579833984 -22.687999725341797,-31.339000701904297 -24.65999984741211,-33.808998107910156 C-24.13599967956543,-33.375999450683594 -24.922000885009766,-34.45199966430664 -24.06100082397461,-34.3390007019043 C-20.582000732421875,-34.867000579833984 21.466999053955078,27.4950008392334 24.055999755859375,30.472000122070312 C24.92300033569336,31.47100067138672 18.90999984741211,34.867000579833984 18.90999984741211,34.867000579833984z"></path></g></g></g></svg>