<svg xmlns="http://www.w3.org/2000/svg" viewBox="0 0 760 760" width="760" height="760" style="width: 100%; height: 100%; transform: translate3d(0px, 0px, 0px);" preserveAspectRatio="xMidYMid meet"><defs><clipPath id="__lottie_element_2462"><rect width="760" height="760" x="0" y="0"></rect></clipPath></defs><g clip-path="url(#__lottie_element_2462)"><g style="display: block;" transform="matrix(0,0,0,0,358,366)" opacity="1"><g opacity="1" transform="matrix(1,0,0,1,189.6909942626953,-1.996000051498413)"><path fill="rgb(209,240,246)" fill-opacity="1" d=" M118,-148 C-7.690999984741211,-264.0039978027344 -134.6909942626953,-283.0039978027344 -246,-210 C-324.9989929199219,-170.6909942626953 -367.6910095214844,-43.00400161743164 -315,67 C-288.96600341796875,121.35199737548828 -244.66700744628906,235.4669952392578 -98,299.0010070800781 C-65.69100189208984,312.9960021972656 121.30899810791016,368.9960021972656 239,272 C299.7409973144531,221.94000244140625 268.3080139160156,43.99599838256836 243,1 C219.08299255371094,-39.63199996948242 178.4759979248047,-92.18499755859375 118,-148z"></path></g></g><g style="display: block;" transform="matrix(0.75,0,0,0.75,218.75726318359375,395.4222412109375)" opacity="1"><g opacity="1" transform="matrix(1,0,0,1,265.8489990234375,178.9409942626953)"><path fill="rgb(168,215,224)" fill-opacity="1" d=" M256.6109924316406,58.8120002746582 C265.5989990234375,45.33100128173828 63.10300064086914,-150.07899475097656 53.926998138427734,-161.7689971923828 C40.643001556396484,-178.6909942626953 -265.5989990234375,-80.27899932861328 -265.5989990234375,-80.27899932861328 C-264.6650085449219,-58.0260009765625 -203.99899291992188,92.51499938964844 -138.83999633789062,162.16799926757812 C-123.38300323486328,178.6909942626953 46.86399841308594,119.8219985961914 149.25399780273438,91.4010009765625 C222.9080047607422,74.54000091552734 247.62399291992188,72.29299926757812 256.6109924316406,58.8120002746582z"></path></g></g><g style="display: block;" transform="matrix(0.75,0,0,0.75,203.6945037841797,188.0987548828125)" opacity="1"><g opacity="1" transform="matrix(1,0,0,1,205.29200744628906,239.56399536132812)"><path fill="rgb(246,226,1)" fill-opacity="1" d=" M-195.82400512695312,-223.2259979248047 C-205.04200744628906,-215.3249969482422 -195.8249969482422,-187.0260009765625 -191.80299377441406,-169.5970001220703 C-187.781005859375,-152.16799926757812 -174.37399291992188,-111.947998046875 -170.3520050048828,-89.15599822998047 C-166.3300018310547,-66.36399841308594 -159.625,-16.759000778198242 -162.3070068359375,6.0320000648498535 C-164.98800659179688,28.823999404907227 -163.64700317382812,66.36399841308594 -167.66900634765625,79.7699966430664 C-171.69200134277344,93.177001953125 -171.69200134277344,95.85900115966797 -167.66900634765625,115.96900177001953 C-163.64700317382812,136.0800018310547 -164.98899841308594,129.37600708007812 -173.0330047607422,158.87100219726562 C-181.07699584960938,188.36599731445312 -195.8249969482422,208.4770050048828 -191.80299377441406,233.9499969482422 C-156.94500732421875,236.63099670410156 -96.61399841308594,237.9720001220703 -61.75600051879883,237.9720001220703 C-26.898000717163086,237.9720001220703 97.78700256347656,228.58700561523438 121.91899871826172,232.60899353027344 C146.05099487304688,236.63099670410156 199.6790008544922,239.31300354003906 199.6790008544922,239.31300354003906 C199.6790008544922,239.31300354003906 205.04200744628906,208.4770050048828 203.7010040283203,193.72900390625 C202.36099243164062,178.98199462890625 182.25,152.16799926757812 179.56900024414062,134.73899841308594 C176.88699340820312,117.30999755859375 182.25100708007812,56.979000091552734 182.25100708007812,35.52799987792969 C182.25100708007812,14.07699966430664 180.91000366210938,-32.847999572753906 182.25100708007812,-54.29899978637695 C183.5919952392578,-75.75 175.5469970703125,-87.81600189208984 178.22799682617188,-105.24500274658203 C180.90899658203125,-122.67400360107422 198.33799743652344,-148.14599609375 199.6790008544922,-177.64100646972656 C201.02000427246094,-207.13699340820312 203.7010040283203,-236.63299560546875 203.7010040283203,-236.63299560546875 C203.7010040283203,-236.63299560546875 129.96299743652344,-223.22500610351562 61.5880012512207,-227.2469940185547 C-6.7870001792907715,-231.2689971923828 -49.689998626708984,-236.63299560546875 -87.22899627685547,-237.9739990234375 C-124.76799774169922,-239.31399536132812 -177.0540008544922,-239.31399536132812 -195.82400512695312,-223.2259979248047z"></path></g><g opacity="1" transform="matrix(1,0,0,1,204.89700317382812,22.69700050354004)"><path fill="rgb(237,215,7)" fill-opacity="1" d=" M-198.38900756835938,21.79599952697754 C-179.61900329589844,5.708000183105469 -138.05799865722656,7.048999786376953 -100.51799774169922,8.388999938964844 C-62.979000091552734,9.729999542236328 -6.670000076293945,8.390000343322754 61.70500183105469,12.411999702453613 C125.73699951171875,16.179000854492188 191.77699279785156,10.02400016784668 200.25100708007812,8.545999526977539 C201.38800048828125,-7.7729997634887695 202.4770050048828,-19.764999389648438 202.4770050048828,-19.764999389648438 C202.4770050048828,-19.764999389648438 128.73899841308594,-6.357999801635742 60.36399841308594,-10.380000114440918 C-8.01200008392334,-14.402000427246094 -50.91299819946289,-19.764999389648438 -88.4520034790039,-21.104999542236328 C-125.99199676513672,-22.445999145507812 -178.2790069580078,-22.445999145507812 -197.04800415039062,-6.357999801635742 C-202.4770050048828,-1.7039999961853027 -201.4980010986328,10.029999732971191 -198.96499633789062,22.44700050354004 C-198.76699829101562,22.23699951171875 -198.60699462890625,21.983999252319336 -198.38900756835938,21.79599952697754z"></path></g><g opacity="1" transform="matrix(1,0,0,1,211.2239990234375,460.8420104980469)"><path fill="rgb(237,215,7)" fill-opacity="1" d=" M196.1510009765625,-21.514999389648438 C177.38099670410156,-5.427000045776367 140.51199340820312,-10.003000259399414 102.9729995727539,-11.343000411987305 C65.43299865722656,-12.684000015258789 9.12399959564209,-11.343000411987305 -59.250999450683594,-15.364999771118164 C-123.28299713134766,-19.131999969482422 -189.32400512695312,-12.977999687194824 -197.79800415039062,-11.5 C-198.93499755859375,4.818999767303467 -199.35299682617188,13.343000411987305 -199.35299682617188,13.343000411987305 C-199.35299682617188,13.343000411987305 -112.20800018310547,17.364999771118164 -59.250999450683594,15.354000091552734 C22.648000717163086,12.244000434875488 61.4119987487793,9.991000175476074 98.95099639892578,11.331999778747559 C136.49000549316406,12.67199993133545 183.89300537109375,22.184999465942383 192.1280059814453,16.69499969482422 C194.13900756835938,15.354000091552734 199.35400390625,-9.769000053405762 196.8209991455078,-22.184999465942383 C196.6230010986328,-21.975000381469727 196.36900329589844,-21.702999114990234 196.1510009765625,-21.514999389648438z"></path></g><g opacity="1" transform="matrix(1,0,0,1,317.8039855957031,256.9930114746094)"><path fill="rgb(237,215,7)" fill-opacity="1" d=" M-25.72800064086914,-215.18099975585938 C-27.069000244140625,-192.38900756835938 -28.40999984741211,-185.68600463867188 -43.15800094604492,-165.5749969482422 C-57.90599822998047,-145.46499633789062 -79.35600280761719,-130.7169952392578 -63.266998291015625,-136.0800018310547 C-47.17900085449219,-141.4429931640625 -15.001999855041504,-158.8719940185547 -5.618000030517578,-174.9600067138672 C3.7669999599456787,-191.0489959716797 2.4260001182556152,-212.5 21.19499969482422,-215.18099975585938 C39.96500015258789,-217.86199951171875 77.50399780273438,-228.58799743652344 72.14199829101562,-215.18099975585938 C66.77899932861328,-201.7740020751953 74.8239974975586,-201.7740020751953 60.07600021362305,-177.64199829101562 C45.32899856567383,-153.50900268554688 46.66899871826172,-145.46499633789062 43.987998962402344,-129.3769989013672 C41.30699920654297,-113.28800201416016 42.645999908447266,-113.28800201416016 22.535999298095703,-103.90399932861328 C2.4260001182556152,-94.51899719238281 1.0859999656677246,-90.49700164794922 13.152000427246094,-86.4749984741211 C25.218000411987305,-82.4530029296875 33.26100158691406,-82.4530029296875 22.535999298095703,-71.72699737548828 C11.8100004196167,-61.000999450683594 -9.640000343322754,-52.957000732421875 -0.2549999952316284,-48.935001373291016 C9.130000114440918,-44.91299819946289 19.856000900268555,-65.02400207519531 34.60300064086914,-46.25400161743164 C49.35100173950195,-27.483999252319336 61.41699981689453,-6.0329999923706055 61.41699981689453,12.737000465393066 C61.41699981689453,31.506000518798828 62.757999420166016,66.36399841308594 57.39500045776367,70.38600158691406 C52.03200149536133,74.40799713134766 52.03099822998047,73.06800079345703 25.216999053955078,67.70500183105469 C-1.597000002861023,62.34199905395508 -27.06999969482422,52.957000732421875 -51.20199966430664,59.6609992980957 C-75.33499908447266,66.36399841308594 -92.76399993896484,58.31999969482422 -75.33499908447266,66.36399841308594 C-57.90599822998047,74.40799713134766 -9.640000343322754,77.08999633789062 5.107999801635742,85.13400268554688 C19.856000900268555,93.1780014038086 53.37300109863281,83.79299926757812 60.07600021362305,118.6510009765625 C66.77999877929688,153.50900268554688 77.50499725341797,172.2790069580078 66.77999877929688,169.59800720214844 C56.05400085449219,166.91600036621094 39.965999603271484,160.21299743652344 29.239999771118164,152.16900634765625 C18.514999389648438,144.12399291992188 11.810999870300293,129.3769989013672 18.514999389648438,144.12399291992188 C25.218000411987305,158.8719940185547 37.284000396728516,174.9600067138672 52.03099822998047,188.36700439453125 C66.77899932861328,201.7740020751953 70.46600341796875,204.45599365234375 74.48799896240234,216.52200317382812 C78.51000213623047,228.58799743652344 86.55400085449219,218.5330047607422 86.55400085449219,218.5330047607422 C86.55400085449219,218.5330047607422 92.76300048828125,185.60299682617188 86.55400085449219,169.26199340820312 C67.4489974975586,118.98600006103516 61.41699981689453,99.5459976196289 65.43900299072266,80.7770004272461 C69.46099853515625,62.00699996948242 70.8010025024414,8.71500015258789 68.11900329589844,-11.395999908447266 C65.43800354003906,-31.506000518798828 71.0719985961914,-66.03700256347656 66.44400024414062,-84.12799835205078 C55.382999420166016,-127.36599731445312 75.15899658203125,-154.51499938964844 80.52200317382812,-178.64700317382812 C85.88500213623047,-202.77999877929688 86.55400085449219,-224.9010009765625 86.55400085449219,-224.9010009765625 C86.55400085449219,-224.9010009765625 -24.38800048828125,-228.58799743652344 -24.38800048828125,-228.58799743652344 C-24.38800048828125,-228.58799743652344 -25.72800064086914,-215.18099975585938 -25.72800064086914,-215.18099975585938z"></path></g><g opacity="1" transform="matrix(1,0,0,1,75.45700073242188,246.77000427246094)"><path fill="rgb(237,215,7)" fill-opacity="1" d=" M-33.685001373291016,-215.6840057373047 C-36.70199966430664,-195.57400512695312 -40.7239990234375,-193.56300354003906 -17.597000122070312,-180.49099731445312 C5.53000020980835,-167.41900634765625 18.601999282836914,-154.3470001220703 27.652000427246094,-145.29800415039062 C36.70100021362305,-136.2480010986328 45.75199890136719,-120.16000366210938 33.68600082397461,-124.18199920654297 C21.6200008392334,-128.20399475097656 -22.624000549316406,-149.32000732421875 -22.624000549316406,-141.2760009765625 C-22.624000549316406,-133.2310028076172 -23.6299991607666,-139.26499938964844 -15.586000442504883,-112.11599731445312 C-7.540999889373779,-84.96700286865234 -15.586000442504883,-69.88400268554688 1.5080000162124634,-58.823001861572266 C18.601999282836914,-47.762001037597656 18.60300064086914,-37.707000732421875 10.559000015258789,-35.69599914550781 C2.515000104904175,-33.685001373291016 -9.553000450134277,-23.6299991607666 -10.557999610900879,-12.569000244140625 C-11.564000129699707,-1.5080000162124634 -17.597000122070312,21.618999481201172 -15.586000442504883,44.744998931884766 C-13.574999809265137,67.87200164794922 -23.6299991607666,85.97200012207031 -9.553000450134277,75.91699981689453 C4.525000095367432,65.86100006103516 14.581000328063965,56.8120002746582 19.608999252319336,63.849998474121094 C24.63599967956543,70.88899993896484 19.607999801635742,78.93299865722656 4.525000095367432,95.02100372314453 C-10.557999610900879,111.11000061035156 -20.613000869750977,135.24200439453125 -12.569000244140625,151.3300018310547 C-4.525000095367432,167.41900634765625 -6.534999847412109,182.5019989013672 21.6200008392334,189.5399932861328 C49.77399826049805,196.57899475097656 63.85100173950195,199.59500122070312 63.85100173950195,207.63999938964844 C63.85100173950195,215.6840057373047 -34.691001892089844,221.7169952392578 -48.768001556396484,222.7220001220703 C-62.845001220703125,223.72799682617188 -56.62200164794922,200.6909942626953 -54.80099868774414,196.57899475097656 C-23.6299991607666,126.19200134277344 -39.71799850463867,102.05999755859375 -35.69599914550781,65.86100006103516 C-31.673999786376953,29.663000106811523 -30.667999267578125,-31.673999786376953 -33.685001373291016,-59.82899856567383 C-36.70199966430664,-87.98300170898438 -61.84000015258789,-173.45199584960938 -62.845001220703125,-198.58999633789062 C-63.85100173950195,-223.72799682617188 -33.685001373291016,-215.6840057373047 -33.685001373291016,-215.6840057373047z"></path></g><g opacity="1" transform="matrix(1,0,0,1,220.11500549316406,204.03700256347656)"><path fill="rgb(249,239,154)" fill-opacity="1" d=" M50.08300018310547,64.37699890136719 C28.707000732421875,84.44300079345703 3.8970000743865967,90.87300109863281 -23.020999908447266,89.70600128173828 C-44.196998596191406,88.78800201416016 -61.80799865722656,79.17900085449219 -72.8740005493164,61.10900115966797 C-91.04000091552734,31.44499969482422 -98.37699890136719,-1.024999976158142 -91.67400360107422,-35.61899948120117 C-87.9260025024414,-54.965999603271484 -76.27300262451172,-68.73600006103516 -58.152000427246094,-76.95700073242188 C-34.59000015258789,-87.64600372314453 -10.020999908447266,-90.87300109863281 15.432000160217285,-86.87200164794922 C67.4020004272461,-78.7040023803711 98.37699890136719,-23.023000717163086 77.67400360107422,25.344999313354492 C71.11699676513672,40.66299819946289 62.53200149536133,54.87699890136719 50.08300018310547,64.37699890136719z"></path></g><g opacity="1" transform="matrix(1,0,0,1,204.92999267578125,13.656999588012695)"><path stroke-linecap="butt" stroke-linejoin="miter" fill-opacity="0" stroke-miterlimit="10" stroke="rgb(246,226,1)" stroke-opacity="1" stroke-width="0.25" d=" M-200.43299865722656,9.385000228881836 C-200.43299865722656,9.385000228881836 -168.927001953125,-9.385000228881836 -118.6510009765625,-4.021999835968018 C-68.375,1.340999960899353 -48.263999938964844,-5.36299991607666 2.01200008392334,1.340999960899353 C52.2869987487793,8.043999671936035 125.35399627685547,4.692999839782715 144.12399291992188,2.010999917984009 C162.8939971923828,-0.6700000166893005 200.43299865722656,-2.680999994277954 200.43299865722656,-2.680999994277954"></path></g><g opacity="1" transform="matrix(1,0,0,1,204.59500122070312,19.020000457763672)"><path stroke-linecap="butt" stroke-linejoin="miter" fill-opacity="0" stroke-miterlimit="10" stroke="rgb(246,226,1)" stroke-opacity="1" stroke-width="0.25" d=" M-200.76800537109375,6.703000068664551 C-200.76800537109375,6.703000068664551 -169.9320068359375,-4.691999912261963 -119.65599822998047,0.6710000038146973 C-69.37999725341797,6.033999919891357 -48.5989990234375,-6.703000068664551 1.6770000457763672,0.0010000000474974513 C51.95199966430664,6.703999996185303 125.69000244140625,6.703999996185303 144.4600067138672,4.0229997634887695 C163.22999572753906,1.340999960899353 200.76800537109375,-6.703000068664551 200.76800537109375,-6.703000068664551"></path></g><g opacity="1" transform="matrix(1,0,0,1,204.25999450683594,25.722999572753906)"><path stroke-linecap="butt" stroke-linejoin="miter" fill-opacity="0" stroke-miterlimit="10" stroke="rgb(246,226,1)" stroke-opacity="1" stroke-width="0.25" d=" M-201.7740020751953,5.36299991607666 C-201.7740020751953,5.36299991607666 -148.14599609375,-4.021999835968018 -122.6729965209961,-1.340000033378601 C-97.19999694824219,1.340999960899353 -87.1449966430664,2.681999921798706 -61.000999450683594,0 C-34.858001708984375,-2.680999994277954 8.043999671936035,-1.340000033378601 21.451000213623047,0 C34.858001708984375,1.340999960899353 99.21099853515625,4.021999835968018 123.34400177001953,3.3519999980926514 C147.4759979248047,2.681999921798706 201.7740020751953,-5.36299991607666 201.7740020751953,-5.36299991607666"></path></g><g opacity="1" transform="matrix(1,0,0,1,209.6230010986328,470.5559997558594)"><path stroke-linecap="butt" stroke-linejoin="miter" fill-opacity="0" stroke-miterlimit="10" stroke="rgb(246,227,52)" stroke-opacity="1" stroke-width="0.25" d=" M196.41099548339844,-5.75600004196167 C196.41099548339844,-5.75600004196167 172.94900512695312,5.75600004196167 122.6729965209961,0.39399999380111694 C72.39700317382812,-4.968999862670898 48.03900146484375,-2.240999937057495 -2.681999921798706,-2.4040000438690186 C-38.880001068115234,-2.5209999084472656 -120.66200256347656,-5.085999965667725 -139.43099975585938,-2.4040000438690186 C-158.2010040283203,0.2770000100135803 -196.41099548339844,-0.9470000267028809 -196.41099548339844,-0.9470000267028809"></path></g><g opacity="1" transform="matrix(1,0,0,1,209.28799438476562,461.447998046875)"><path stroke-linecap="butt" stroke-linejoin="miter" fill-opacity="0" stroke-miterlimit="10" stroke="rgb(246,227,52)" stroke-opacity="1" stroke-width="0.25" d=" M197.41700744628906,-2.681999921798706 C197.41700744628906,-2.681999921798706 174.625,4.809000015258789 124.3489990234375,-0.5529999732971191 C74.072998046875,-5.915999889373779 34.52299880981445,6.703999996185303 -15.753000259399414,0 C-66.02899932861328,-6.703000068664551 -127.03099822998047,-3.3519999980926514 -145.8000030517578,-0.6710000038146973 C-164.57000732421875,2.009999990463257 -197.41700744628906,2.681999921798706 -197.41700744628906,2.681999921798706"></path></g><g opacity="1" transform="matrix(1,0,0,1,209.95799255371094,454.8609924316406)"><path stroke-linecap="butt" stroke-linejoin="miter" fill-opacity="0" stroke-miterlimit="10" stroke="rgb(237,215,20)" stroke-opacity="1" stroke-width="0.25" d=" M196.7469940185547,-2.128000020980835 C196.7469940185547,-2.128000020980835 152.50399780273438,4.0229997634887695 127.03099822998047,1.340999960899353 C101.55799865722656,-1.340000033378601 91.50199890136719,-2.681999921798706 65.35900115966797,0 C39.215999603271484,2.680999994277954 -2.3459999561309814,3.9059998989105225 -15.753000259399414,2.565000057220459 C-29.15999984741211,1.225000023841858 -94.85399627685547,-4.0229997634887695 -118.98600006103516,-3.3519999980926514 C-143.11900329589844,-2.681999921798706 -196.7469940185547,2.565000057220459 -196.7469940185547,2.565000057220459"></path></g></g><g style="display: block;" transform="matrix(0.75,0,0,0.75,190.78150939941406,482.8977355957031)" opacity="1"><g opacity="1" transform="matrix(1,0,0,1,68.53299713134766,69.47000122070312)"><path fill="rgb(252,248,154)" fill-opacity="1" d=" M-51.33700180053711,-58.86899948120117 C-62.09299850463867,-48.516998291015625 -68.28399658203125,-36.18299865722656 -63.56800079345703,-13.895000457763672 C-58.85100173950195,8.392999649047852 -58.08599853515625,32.095001220703125 -36.32400131225586,47.805999755859375 C-14.562999725341797,63.518001556396484 0.4880000054836273,69.22100067138672 19.503000259399414,65.79499816894531 C38.518001556396484,62.36899948120117 60.33000183105469,47.22100067138672 64.30699920654297,30.378000259399414 C68.28399658203125,13.53499984741211 64.08100128173828,-21.468000411987305 51.88199996948242,-34.69499969482422 C39.68299865722656,-47.92300033569336 12.866000175476074,-68.33300018310547 -3.243000030517578,-68.23500061035156 C-19.351999282836914,-68.13800048828125 -40.58100128173828,-69.22100067138672 -51.33700180053711,-58.86899948120117z"></path></g></g><g style="display: block;" transform="matrix(0.75,0,0,0.75,223.29273986816406,523.01171875)" opacity="1"><g opacity="1" transform="matrix(1,0,0,1,44.92300033569336,41.28300094604492)"><path fill="rgb(246,226,1)" fill-opacity="1" d=" M44.67300033569336,7.252999782562256 C44.56399917602539,4.855999946594238 -13.638999938964844,-41.03300094604492 -40.96500015258789,31.229000091552734 C-44.672000885009766,41.034000396728516 1.8890000581741333,22.125 13.614999771118164,25.56599998474121 C25.340999603271484,29.006000518798828 33.090999603271484,31.08099937438965 35.9119987487793,28.14299964904785 C43.99800109863281,19.719999313354492 44.67300033569336,7.252999782562256 44.67300033569336,7.252999782562256z"></path></g></g><g style="display: block;" transform="matrix(0.75,0,0,0.75,292.1399841308594,553.3784790039062)" opacity="1"><g opacity="1" transform="matrix(1,0,0,1,66.13999938964844,44.79800033569336)"><path fill="rgb(252,248,154)" fill-opacity="1" d=" M59.2400016784668,-22.106000900268555 C52.59000015258789,-31.07200050354004 43.215999603271484,-37.50299835205078 22.79599952697754,-38.9119987487793 C2.375,-40.32099914550781 -18.409000396728516,-44.54800033569336 -36.84000015258789,-33.70500183105469 C-55.270999908447266,-22.861000061035156 -63.5260009765625,-14.333999633789062 -64.70800018310547,-1.444000005722046 C-65.88999938964844,11.446000099182129 -57.487998962402344,28.46500015258789 -43.707000732421875,34.37200164794922 C-29.927000045776367,40.27799987792969 1.440000057220459,44.54800033569336 15.616999626159668,39.349998474121094 C29.79400062561035,34.1510009765625 53.417999267578125,20.99799919128418 56.85900115966797,10.63700008392334 C60.30099868774414,0.2750000059604645 65.88999938964844,-13.140000343322754 59.2400016784668,-22.106000900268555z"></path></g></g><g style="display: block;" transform="matrix(0.75,0,0,0.75,152.75750732421875,553.6022338867188)" opacity="1"><g opacity="1" transform="matrix(1,0,0,1,43.263999938964844,31.910999298095703)"><path fill="rgb(246,226,1)" fill-opacity="1" d=" M-5.291999816894531,-18.2189998626709 C9.467000007629395,-23.163999557495117 26.461999893188477,-20.538000106811523 34.737998962402344,-17.089000701904297 C43.013999938964844,-13.640999794006348 23.243999481201172,6.326000213623047 15.024999618530273,10.654000282287598 C6.806000232696533,14.982000350952148 -31.423999786376953,23.163000106811523 -31.423999786376953,23.163000106811523 C-31.423999786376953,23.163000106811523 -43.013999938964844,-5.580999851226807 -5.291999816894531,-18.2189998626709z"></path></g><g opacity="1" transform="matrix(1,0,0,1,92.97200012207031,31.437000274658203)"><path fill="rgb(252,248,154)" fill-opacity="1" d=" M-82.49299621582031,22.573999404907227 C-73.00800323486328,22.694000244140625 -56.06999969482422,17.54400062561035 -42.400001525878906,6.442999839782715 C-28.729000091552734,-4.658999919891357 -13.510000228881836,-18.402000427246094 2.7049999237060547,-24.711000442504883 C19.349000930786133,-31.187000274658203 45.34199905395508,-28.284000396728516 58.69900131225586,-19.334999084472656 C72.4229965209961,-10.142000198364258 82.49299621582031,5.14900016784668 80.75299835205078,13.602999687194824 C79.01300048828125,22.055999755859375 75.47599792480469,31.187000274658203 60.65999984741211,28.354999542236328 C45.845001220703125,25.523000717163086 9.529000282287598,13.555000305175781 -7.321000099182129,17.85099983215332 C-24.170000076293945,22.14699935913086 -55.21900177001953,30.150999069213867 -67.1780014038086,28.910999298095703 C-79.13600158691406,27.67099952697754 -82.49299621582031,22.573999404907227 -82.49299621582031,22.573999404907227z"></path></g></g><g style="display: block;" transform="matrix(0.75,0,0,0.75,351.77874755859375,624.843505859375)" opacity="1"><g opacity="1" transform="matrix(1,0,0,1,131.91299438476562,28.72100067138672)"><path fill="rgb(237,215,7)" fill-opacity="1" d=" M5.007999897003174,-17.4689998626709 C-9.904999732971191,-21.92799949645996 -26.80500030517578,-18.74799919128418 -34.9640007019043,-15.029999732971191 C-43.12300109863281,-11.312999725341797 -22.709999084472656,7.995999813079834 -14.354000091552734,12.052000045776367 C-5.997000217437744,16.108999252319336 33.80500030517578,21.92799949645996 33.80500030517578,21.92799949645996 C33.80500030517578,21.92799949645996 43.12300109863281,-6.072000026702881 5.007999897003174,-17.4689998626709z"></path></g><g opacity="1" transform="matrix(1,0,0,1,82.98400115966797,32.3380012512207)"><path fill="rgb(252,248,154)" fill-opacity="1" d=" M82.73400115966797,18.31100082397461 C73.25800323486328,18.742000579833984 56.15999984741211,14.14900016784668 42.13399887084961,3.500999927520752 C28.107999801635742,-7.146999835968018 12.446999549865723,-20.385000228881836 -3.9660000801086426,-26.15999984741211 C-20.812999725341797,-32.0880012512207 -46.69599914550781,-28.336000442504883 -59.75400161743164,-18.95599937438965 C-73.16999816894531,-9.317999839782715 -82.73400115966797,6.294000148773193 -80.71800231933594,14.685999870300293 C-78.7030029296875,23.07699966430664 -74.86900329589844,32.0880012512207 -60.15399932861328,28.773000717163086 C-45.43899917602539,25.458999633789062 -9.534000396728516,12.307999610900879 7.447000026702881,16.051000595092773 C24.429000854492188,19.79400062561035 55.72200012207031,26.775999069213867 67.63400268554688,25.145999908447266 C79.5459976196289,23.514999389648438 82.73400115966797,18.31100082397461 82.73400115966797,18.31100082397461z"></path></g></g></g></svg>